<?xml version="1.0" encoding="UTF-8" standalone="no"?>
<svg width="495px" height="156px" viewBox="0 0 495 156" version="1.1" xmlns="http://www.w3.org/2000/svg" xmlns:xlink="http://www.w3.org/1999/xlink" xmlns:sketch="http://www.bohemiancoding.com/sketch/ns">
    <!-- Generator: Sketch 3.1.1 (8761) - http://www.bohemiancoding.com/sketch -->
    <title>setup</title>
    <desc>Created with Sketch.</desc>
    <defs>
        <path d="M39.0843954,26 C36.5358682,34.1142139 28.9552836,40 20,40 C8.954305,40 0,31.045695 0,20 C0,8.954305 8.954305,0 20,0 C29.3191971,0 37.1496986,6.37386394 39.3699126,15 L82.5087299,15 C85.5324859,15 89.1784497,17.1604911 90.6321411,19.825592 L91,20.5 L90.6321411,21.174408 C89.1770691,23.8420401 85.5414746,26 82.5087299,26 L39.0843954,26 Z M7,28 C8.65685425,28 10,24.418278 10,20 C10,15.581722 8.65685425,12 7,12 C5.34314575,12 4,15.581722 4,20 C4,24.418278 5.34314575,28 7,28 Z" id="path-1"></path>
        <linearGradient x1="100%" y1="50%" x2="24.8246173%" y2="50%" id="linearGradient-3">
            <stop stop-color="#D0EFFF" offset="0%"></stop>
            <stop stop-color="#139DE9" stop-opacity="0" offset="100%"></stop>
        </linearGradient>
    </defs>
    <g id="Page-1" stroke="none" stroke-width="1" fill="none" fill-rule="evenodd" sketch:type="MSPage">
        <g id="setup" sketch:type="MSArtboardGroup">
            <g id="Rectangle-15-+-Rectangle-17-+-Rectangle-18-+-Rectangle-25-+-Imported-Layers-2-+-Rectangle-26" sketch:type="MSLayerGroup" transform="translate(14.000000, 16.000000)">
                <g id="Rectangle-15-+-Rectangle-17-+-Rectangle-18" stroke="#9B9B9B" sketch:type="MSShapeGroup">
                    <path d="M9.00036621,0 C4.02960121,0 0,4.02441947 0,9.00024983 L0,88.9997502 C0,93.9704509 4.03083939,98 9.00036621,98 L47.9996338,98 C52.9703988,98 57,93.9755805 57,88.9997502 L57,9.00024983 C57,4.0295491 52.9691606,0 47.9996338,0 L9.00036621,0 Z M4.51166973,13.8205128 C3.40368975,13.8205128 2.50549451,14.7148758 2.50549451,15.8136166 L2.50549451,81.5581783 C2.50549451,82.6589391 3.40786114,83.5512821 4.51166973,83.5512821 L52.4883303,83.5512821 C53.5963103,83.5512821 54.4945055,82.656919 54.4945055,81.5581783 L54.4945055,15.8136166 C54.4945055,14.7128558 53.5921389,13.8205128 52.4883303,13.8205128 L4.51166973,13.8205128 Z" id="Rectangle-15" fill="#FFFFFF"></path>
                    <rect id="Rectangle-17" x="21.9230769" y="86.0641026" width="12.5274725" height="8.79487179" rx="4"></rect>
                    <rect id="Rectangle-17" x="21.9230769" y="5.65384615" width="12.5274725" height="2.51282051" rx="4"></rect>
                </g>
                <g id="Rectangle-25-+-Imported-Layers-2" transform="translate(13.273973, 44.944444)" sketch:type="MSShapeGroup">
                    <rect id="Rectangle-25" fill="#139DE9" x="0" y="0" width="30.4520548" height="30.3333333" rx="9"></rect>
                    <path d="M10.4037017,6.85934271 C14.6216158,4.4437634 20.0336252,5.88344616 22.4692509,10.0675634 C23.7284902,12.2314806 23.9960232,14.8347082 23.2022787,17.2088668 C22.982813,17.865322 22.2687592,18.2211634 21.6078325,18.0040186 C20.9462733,17.7868737 20.5876652,17.0777013 20.8071309,16.4212462 C21.3738202,14.7248806 21.1828155,12.8653427 20.2840817,11.3195979 C18.5441684,8.32914961 14.6785377,7.30304616 11.6661033,9.02828064 C8.65366894,10.7541427 7.61769003,14.5886944 9.35760332,17.5785151 C10.2576021,19.1248875 11.7843744,20.2181427 13.5457915,20.5808875 C14.229487,20.7195841 14.6684183,21.38106 14.5280109,22.0607358 C14.386971,22.7360186 13.7197196,23.1728186 13.0366566,23.0328668 C10.5687752,22.5264048 8.43104099,20.995722 7.17243414,18.8311772 C4.73744099,14.6464324 6.18768496,9.27492202 10.4037017,6.85934271 L10.4037017,6.85934271 Z M14.9897109,17.2433841 L18.14445,22.6644737 C18.4923062,23.2638186 19.2632819,23.4690393 19.8666543,23.1232393 C20.4706591,22.7774393 20.6774754,22.0130393 20.3296192,21.4130668 L17.1742476,15.9919772 C16.8263914,15.3926324 16.0541507,15.1880393 15.4514109,15.5338393 C14.8480385,15.8796393 14.6412222,16.6440393 14.9897109,17.2433841 L14.9897109,17.2433841 Z" id="Imported-Layers-2" fill="#FFFFFF"></path>
                </g>
                <path d="M26.6528042,21.7177525 C32.265578,21.3135293 38.0083021,23.4135138 42.014184,27.3686731 C42.5390753,27.9090147 42.4706268,28.8542382 41.916871,29.3494266 C41.4082684,29.9489944 40.3897457,29.9595941 39.8648544,29.3755364 C36.4379998,26.0764164 31.5996577,24.2924447 26.8488674,24.6472628 C22.9021519,24.9011749 19.0788592,26.601188 16.2149827,29.3240354 C15.9602922,29.5843552 15.6350572,29.7980844 15.2605369,29.8164092 C14.3223798,29.9264178 13.4547671,28.945922 13.657238,28.0282456 C13.7143682,27.6988186 13.9259416,27.4244259 14.1678767,27.2050076 C17.5207135,23.9947568 22.0218436,22.0231656 26.6528042,21.7177525 Z M26.5138712,27.221955 C30.8139676,26.7542538 35.2791668,28.3392878 38.322159,31.411983 C38.7975854,31.9551392 38.7383592,32.8432924 38.2100544,33.3314144 C37.7282204,33.9211012 36.7569469,33.9873339 36.2109162,33.4526214 C34.2626203,31.5318726 31.628642,30.3122563 28.8974107,30.1126 C25.5805647,29.8374887 22.1918569,31.0959104 19.8301753,33.4329193 C19.2855819,34.0085331 18.2711913,33.943019 17.7810332,33.3306359 C17.2526686,32.8319742 17.2089526,31.9198071 17.716118,31.3915023 C20.0566601,29.0496427 23.2217577,27.5598257 26.5138712,27.221955 Z M27.1494298,32.6527985 C29.863055,32.3833762 32.6684837,33.4224394 34.556775,35.3876828 C35.0738214,35.9258686 35.0139365,36.8521086 34.4692831,37.3501116 C33.9748134,37.9469247 32.983718,37.9871673 32.4462508,37.4277224 C31.3818563,36.3351221 29.9074896,35.6444693 28.381023,35.5612293 C26.6486122,35.4377466 24.8956609,36.1220516 23.665445,37.3395119 C23.3628465,37.6795984 22.9134701,37.8883572 22.4535539,37.8341015 C21.3856262,37.7592453 20.6442509,36.333625 21.3799371,35.4779893 C22.8655023,33.8668454 24.9753677,32.8686836 27.1494298,32.6527985 Z M27.567726,37.7239132 C29.3164255,37.4304771 31.0911749,38.8744822 31.1476464,40.6477345 C31.3098746,42.386553 29.7749044,44.0365621 28.0298579,43.9983555 C26.4610527,44.052731 25.0071666,42.7512521 24.869611,41.1909506 C24.6459408,39.5529783 25.9269391,37.9129699 27.567726,37.7239132 Z" id="Shape-2" fill="#139DE9" sketch:type="MSShapeGroup"></path>
            </g>
            <g id="Rectangle-15-+-Rectangle-17-+-Rectangle-18-+-Rectangle-25-+-Imported-Layers-2-+-Rectangle-26" sketch:type="MSLayerGroup" transform="translate(429.000000, 27.000000)" stroke="#9B9B9B">
                <g id="Rectangle-15-+-Rectangle-17-+-Rectangle-18" sketch:type="MSShapeGroup">
                    <path d="M9.00037868,0 C4.02960679,0 0,4.038843 0,9.0039904 L0,78.9960096 C0,83.9687762 4.02317509,88 9.00037868,88 L41.9996213,88 C46.9703932,88 51,83.961157 51,78.9960096 L51,9.0039904 C51,4.03122381 46.9768249,0 41.9996213,0 L9.00037868,0 Z M4.24051339,12.4102564 C3.1366314,12.4102564 2.24175824,13.3074371 2.24175824,14.4051108 L2.24175824,73.0307867 C2.24175824,74.1325143 3.12945001,75.025641 4.24051339,75.025641 L46.7594866,75.025641 C47.8633686,75.025641 48.7582418,74.1284603 48.7582418,73.0307867 L48.7582418,14.4051108 C48.7582418,13.3033831 47.87055,12.4102564 46.7594866,12.4102564 L4.24051339,12.4102564 Z" id="Rectangle-15" fill="#FFFFFF"></path>
                    <rect id="Rectangle-17" x="19.6153846" y="77.2820513" width="11.2087912" height="7.8974359" rx="4"></rect>
                    <rect id="Rectangle-17" x="19.6153846" y="5.07692308" width="11.2087912" height="2.25641026" rx="4"></rect>
                </g>
            </g>
            <g id="Rectangle-15-+-Rectangle-17-+-Rectangle-18-+-Rectangle-25-+-Imported-Layers-2-+-Rectangle-26" sketch:type="MSLayerGroup" transform="translate(279.250000, 16.000000)">
                <g id="Rectangle-15-+-Rectangle-17-+-Rectangle-18" stroke="#9B9B9B" sketch:type="MSShapeGroup">
                    <path d="M9.00036621,0 C4.02960121,0 0,4.02441947 0,9.00024983 L0,88.9997502 C0,93.9704509 4.03083939,98 9.00036621,98 L47.9996338,98 C52.9703988,98 57,93.9755805 57,88.9997502 L57,9.00024983 C57,4.0295491 52.9691606,0 47.9996338,0 L9.00036621,0 Z M4.51166973,13.8205128 C3.40368975,13.8205128 2.50549451,14.7148758 2.50549451,15.8136166 L2.50549451,81.5581783 C2.50549451,82.6589391 3.40786114,83.5512821 4.51166973,83.5512821 L52.4883303,83.5512821 C53.5963103,83.5512821 54.4945055,82.656919 54.4945055,81.5581783 L54.4945055,15.8136166 C54.4945055,14.7128558 53.5921389,13.8205128 52.4883303,13.8205128 L4.51166973,13.8205128 Z" id="Rectangle-15" fill="#FFFFFF"></path>
                    <rect id="Rectangle-17" x="21.9230769" y="86.0641026" width="12.5274725" height="8.79487179" rx="4"></rect>
                    <rect id="Rectangle-17" x="21.9230769" y="5.65384615" width="12.5274725" height="2.51282051" rx="4"></rect>
                </g>
                <g id="Rectangle-25-+-Imported-Layers-2" transform="translate(13.500000, 34.000000)" sketch:type="MSShapeGroup">
                    <rect id="Rectangle-25" fill="#139DE9" x="0" y="0" width="30.4520548" height="30.3333333" rx="9"></rect>
                    <path d="M10.4037017,6.85934271 C14.6216158,4.4437634 20.0336252,5.88344616 22.4692509,10.0675634 C23.7284902,12.2314806 23.9960232,14.8347082 23.2022787,17.2088668 C22.982813,17.865322 22.2687592,18.2211634 21.6078325,18.0040186 C20.9462733,17.7868737 20.5876652,17.0777013 20.8071309,16.4212462 C21.3738202,14.7248806 21.1828155,12.8653427 20.2840817,11.3195979 C18.5441684,8.32914961 14.6785377,7.30304616 11.6661033,9.02828064 C8.65366894,10.7541427 7.61769003,14.5886944 9.35760332,17.5785151 C10.2576021,19.1248875 11.7843744,20.2181427 13.5457915,20.5808875 C14.229487,20.7195841 14.6684183,21.38106 14.5280109,22.0607358 C14.386971,22.7360186 13.7197196,23.1728186 13.0366566,23.0328668 C10.5687752,22.5264048 8.43104099,20.995722 7.17243414,18.8311772 C4.73744099,14.6464324 6.18768496,9.27492202 10.4037017,6.85934271 L10.4037017,6.85934271 Z M14.9897109,17.2433841 L18.14445,22.6644737 C18.4923062,23.2638186 19.2632819,23.4690393 19.8666543,23.1232393 C20.4706591,22.7774393 20.6774754,22.0130393 20.3296192,21.4130668 L17.1742476,15.9919772 C16.8263914,15.3926324 16.0541507,15.1880393 15.4514109,15.5338393 C14.8480385,15.8796393 14.6412222,16.6440393 14.9897109,17.2433841 L14.9897109,17.2433841 Z" id="Imported-Layers-2" fill="#FFFFFF"></path>
                </g>
            </g>
            <text id="START" sketch:type="MSTextLayer" font-family="Helvetica Neue" font-size="14" font-weight="bold" sketch:alignment="middle" fill="#139DE9">
                <tspan x="284.824" y="144">START</tspan>
            </text>
            <text id="DRIVE" sketch:type="MSTextLayer" font-family="Helvetica Neue" font-size="14" font-weight="bold" sketch:alignment="middle" fill="#139DE9">
                <tspan x="432.748" y="144">DRIVE</tspan>
            </text>
            <text id="CONNECT" sketch:type="MSTextLayer" font-family="Helvetica Neue" font-size="14" font-weight="bold" sketch:alignment="middle" fill="#139DE9">
                <tspan x="7.493" y="144">CONNECT</tspan>
            </text>
            <text id="TURN-KEY" sketch:type="MSTextLayer" font-family="Helvetica Neue" font-size="14" font-weight="bold" sketch:alignment="middle" fill="#139DE9">
                <tspan x="145.09" y="144">TURN KEY</tspan>
            </text>
            <path d="M112.5,73.5 L88,73.5 L88,67.5 L112.5,67.5 L112.5,63 L128.5,70.5 L112.5,78 L112.5,73.5 Z" id="Rectangle-35" fill="#139DE9" sketch:type="MSShapeGroup"></path>
            <path d="M246.25,73.5 L221.75,73.5 L221.75,67.5 L246.25,67.5 L246.25,63 L262.25,70.5 L246.25,78 L246.25,73.5 Z" id="Rectangle-35" fill="#139DE9" sketch:type="MSShapeGroup"></path>
            <path d="M381.5,73.5 L357,73.5 L357,67.5 L381.5,67.5 L381.5,63 L397.5,70.5 L381.5,78 L381.5,73.5 Z" id="Rectangle-35" fill="#139DE9" sketch:type="MSShapeGroup"></path>
            <g id="Group" sketch:type="MSLayerGroup" transform="translate(181.095844, 70.500000) rotate(-40.000000) translate(-181.095844, -70.500000) translate(135.595844, 50.500000)">
                <mask id="mask-2" sketch:name="Oval 72" fill="white">
                    <use xlink:href="#path-1"></use>
                </mask>
                <use id="Oval-72" fill="#D8D8D8" sketch:type="MSShapeGroup" xlink:href="#path-1"></use>
                <rect id="Rectangle-112" fill="#9B9B9B" sketch:type="MSShapeGroup" mask="url(#mask-2)" x="40" y="19" width="52" height="3"></rect>
                <circle id="Oval-74" stroke="#FFFFFF" sketch:type="MSShapeGroup" mask="url(#mask-2)" cx="19.5" cy="20.5" r="1.5"></circle>
                <circle id="Oval-75" stroke="#FFFFFF" sketch:type="MSShapeGroup" mask="url(#mask-2)" cx="19.5" cy="10.5" r="1.5"></circle>
                <circle id="Oval-76" stroke="#FFFFFF" sketch:type="MSShapeGroup" mask="url(#mask-2)" cx="19.5" cy="30.5" r="1.5"></circle>
                <circle id="Oval-77" stroke="#FFFFFF" sketch:type="MSShapeGroup" mask="url(#mask-2)" cx="29.5" cy="25.5" r="1.5"></circle>
                <circle id="Oval-78" stroke="#FFFFFF" sketch:type="MSShapeGroup" mask="url(#mask-2)" cx="29.5" cy="15.5" r="1.5"></circle>
            </g>
            <g id="Rectangle-66-+-Rectangle-68-+-Knuckle-3" sketch:type="MSLayerGroup" transform="translate(335.858081, 86.904632) scale(-1, 1) rotate(120.000000) translate(-335.858081, -86.904632) translate(304.835577, 66.672563)">
                <rect id="Rectangle-66" stroke="url(#linearGradient-3)" stroke-width="2" fill="#FFFFFF" sketch:type="MSShapeGroup" transform="translate(31.022504, 20.232068) rotate(-160.000000) translate(-31.022504, -20.232068) " x="2.15808727" y="9.17187088" width="57.7288344" height="22.1203945" rx="46"></rect>
                <path d="M3.78439616,20.4556409 L3.78439616,15.3711759 C3.78439616,10.447095 7.77000655,6.46884323 12.6865061,6.46884323 C17.6040867,6.46884323 21.5886161,10.4545533 21.5886161,15.3711759 L21.5886161,20.0991665 C19.7708816,19.1410377 17.7007537,18.5987527 15.5050216,18.5987527 L10.5038557,18.5987527 C8.04691379,18.5987527 5.7482146,19.2765747 3.78439616,20.4556409 Z" id="Rectangle-68" stroke="#D0EFFF" stroke-width="2" sketch:type="MSShapeGroup" transform="translate(12.686504, 13.463889) rotate(290.000000) translate(-12.686504, -13.463889) "></path>
                <g id="Knuckle" transform="translate(24.278482, 11.329958)" stroke="#D0EFFF" sketch:type="MSShapeGroup">
                    <path d="M6.08753425,-0.135934208 C3.21763646,1.93363776 -0.316652941,10.753555 0.348265548,14.3326289" id="Path-47"></path>
                    <path d="M9.86418696,1.48263124 C6.99428917,3.55220321 3.45999977,12.3721204 4.12491826,15.9511943" id="Path-48" transform="translate(6.953772, 8.716913) scale(-1, -1) translate(-6.953772, -8.716913) "></path>
                </g>
            </g>
            <g id="Line-2-+-Line-3" sketch:type="MSLayerGroup" transform="translate(435.000000, 51.000000)" stroke="#D0011B" stroke-width="2" stroke-linecap="square">
                <path d="M0.33087656,0.326533565 L39.3799173,38.8630273" id="Line-2" sketch:type="MSShapeGroup"></path>
                <path d="M39.3743106,0.784577546 L0.325269895,39.3210713" id="Line-3" sketch:type="MSShapeGroup"></path>
            </g>
            <g id="Car" sketch:type="MSLayerGroup" transform="translate(395.000000, 81.000000)">
                <path d="M2.84811511,25.5430203 C2.72781534,26.0172516 2.66388661,26.5138682 2.66388661,27.0252617 L2.66388661,34.6797887 C2.66388661,37.9988949 5.35117486,40.6895622 8.66543626,40.6895622 L11.3137133,40.6895622 C14.0586778,40.6895622 16.3732257,38.841683 17.0876614,36.3234878 L14.5078629,37.2176924 C14.5078629,37.2176924 4.4402446,36.4216645 3.69579581,35.6972484 C2.95134703,34.9728324 2.84772254,30.5049452 2.84772254,25.7082543 C2.84772254,25.6529927 2.84785363,25.5979149 2.84811511,25.5430203 Z" id="Rectangle-33" stroke="#000000" fill="#4A4A4A" sketch:type="MSShapeGroup"></path>
                <path d="M50.8444741,36.3353458 C51.5624392,38.8493584 53.8745172,40.6895622 56.6153953,40.6895622 L59.2636724,40.6895622 C62.5782367,40.6895622 65.265222,37.9952182 65.265222,34.6797887 L65.265222,31.4856696 C65.1570902,33.676524 64.9410193,35.2870453 64.5194725,35.6972484 C63.7750237,36.4216645 53.7074054,37.2176924 53.7074054,37.2176924 L51.0669318,36.3024568 C51.0669318,36.3024568 50.9922157,36.3142811 50.8444741,36.3353458 Z" id="Rectangle-33" stroke="#000000" fill="#4A4A4A" sketch:type="MSShapeGroup"></path>
                <path d="M33.8856436,13.5726073 C25.3783157,13.4592976 9.31970097,12.3386521 9.31970097,12.3386521 C9.31970097,12.3386521 6.41864867,12.6705124 4.90503731,15.0852325 C3.39142596,17.4999526 2.40374144,20.9115635 2.40374144,25.7082543 C2.40374144,30.5049452 2.50736593,34.9728324 3.25181471,35.6972484 C3.99626349,36.4216645 14.0638818,37.2176924 14.0638818,37.2176924 L16.7043554,36.3024568 C16.7043554,36.3024568 22.7421329,37.2579787 33.5894729,37.2918741 C33.6886097,37.2927977 33.7873206,37.2927204 33.8856436,37.2925672 C33.9839666,37.2927204 34.0826775,37.2927977 34.1817755,37.2927977 C45.0291543,37.2579787 51.0669318,36.3024568 51.0669318,36.3024568 L53.7074054,37.2176924 C53.7074054,37.2176924 63.7750237,36.4216645 64.5194725,35.6972484 C65.2639213,34.9728324 65.3675458,30.5049452 65.3675458,25.7082543 C65.3675458,20.9115635 64.3798612,17.4999526 62.8662499,15.0852325 C61.3526385,12.6705124 58.4515862,12.3386521 58.4515862,12.3386521 C58.4515862,12.3386521 42.3929716,13.4592976 33.8856436,13.5726073 Z" id="Path-15" stroke="#4A4A4A" fill="#FFFFFF" sketch:type="MSShapeGroup"></path>
                <g id="Headlight" transform="translate(3.995830, 16.096970)" stroke="#4A4A4A" fill="#D8D8D8" sketch:type="MSShapeGroup">
                    <path d="M8.76840235,2.40596404 C4.6712516,2.40596404 1.77285916,2.94148647 1.06251357,3.49363976 C0.352167973,4.04579305 1.00993638,6.86419891 2.1670497,8.02311719 C2.69325069,8.55013898 5.53545832,9.74774372 6.2769538,9.67328666 C7.01844927,9.59882961 10.7319945,8.70743287 10.7319945,8.70743287 C12.3453481,8.32949568 14.1502987,6.77109435 14.758668,5.23872727 L14.558661,5.74250712 C15.1691777,4.2047311 14.3311669,2.75251582 12.6821533,2.57462846 C12.6821533,2.57462846 12.8655531,2.40596404 8.76840235,2.40596404 Z" id="Rectangle-35" transform="translate(8.014160, 6.041285) rotate(20.000000) translate(-8.014160, -6.041285) "></path>
                    <path d="M9.46389087,2.70357574 C8.99061149,2.53748286 8.53300771,2.38571719 8.0932787,2.24798228 L8.0932787,2.24798228 C7.22455509,2.80564656 6.64836066,3.78452742 6.64836066,4.89894262 C6.64836066,6.63389155 8.04488463,8.04034555 9.76758425,8.04034555 C11.4902839,8.04034555 12.8868078,6.63389155 12.8868078,4.89894262 C12.8868078,4.56677341 12.8356168,4.24664553 12.7407466,3.94612415 C12.4278244,3.81460453 12.0002583,3.643632 11.4163947,3.42151514 C11.7713793,3.81782495 11.9874898,4.34275462 11.9874898,4.9185185 C11.9874898,6.15325612 10.9936042,7.15420873 9.76758425,7.15420873 C8.54156429,7.15420873 7.54767873,6.15325612 7.54767873,4.9185185 C7.54767873,3.78753425 8.38155216,2.85269644 9.46389087,2.70357574 Z" id="Rectangle-37"></path>
                    <path d="M6.04873604,1.67362296 C5.51302884,1.54226595 5.02157232,1.43870239 4.58083745,1.36205995 C3.49813947,1.51085698 2.66388661,2.44586283 2.66388661,3.57710437 C2.66388661,4.81184199 3.65777216,5.8127946 4.88379212,5.8127946 C6.10981208,5.8127946 7.10369763,4.81184199 7.10369763,3.57710437 C7.10369763,2.77265661 6.68182368,2.06744342 6.04873604,1.67362296 Z" id="Rectangle-36"></path>
                    <ellipse id="Oval-20" cx="9.76758425" cy="4.9185185" rx="1.33194331" ry="1.34141414"></ellipse>
                </g>
                <g id="Headlight-2" transform="translate(55.999945, 22.171044) scale(-1, 1) translate(-55.999945, -22.171044) translate(48.066612, 16.096970)" stroke="#4A4A4A" fill="#D8D8D8" sketch:type="MSShapeGroup">
                    <path d="M8.76840235,2.40596404 C4.6712516,2.40596404 1.77285916,2.94148647 1.06251357,3.49363976 C0.352167973,4.04579305 1.00993638,6.86419891 2.1670497,8.02311719 C2.69325069,8.55013898 5.53545832,9.74774372 6.2769538,9.67328666 C7.01844927,9.59882961 10.7319945,8.70743287 10.7319945,8.70743287 C12.3453481,8.32949568 14.1502987,6.77109435 14.758668,5.23872727 L14.558661,5.74250712 C15.1691777,4.2047311 14.3311669,2.75251582 12.6821533,2.57462846 C12.6821533,2.57462846 12.8655531,2.40596404 8.76840235,2.40596404 Z" id="Rectangle-35" transform="translate(8.014160, 6.041285) rotate(20.000000) translate(-8.014160, -6.041285) "></path>
                    <path d="M9.46389087,2.70357574 C8.99061149,2.53748286 8.53300771,2.38571719 8.0932787,2.24798228 L8.0932787,2.24798228 C7.22455509,2.80564656 6.64836066,3.78452742 6.64836066,4.89894262 C6.64836066,6.63389155 8.04488463,8.04034555 9.76758425,8.04034555 C11.4902839,8.04034555 12.8868078,6.63389155 12.8868078,4.89894262 C12.8868078,4.56677341 12.8356168,4.24664553 12.7407466,3.94612415 C12.4278244,3.81460453 12.0002583,3.643632 11.4163947,3.42151514 C11.7713793,3.81782495 11.9874898,4.34275462 11.9874898,4.9185185 C11.9874898,6.15325612 10.9936042,7.15420873 9.76758425,7.15420873 C8.54156429,7.15420873 7.54767873,6.15325612 7.54767873,4.9185185 C7.54767873,3.78753425 8.38155216,2.85269644 9.46389087,2.70357574 Z" id="Rectangle-37"></path>
                    <path d="M6.04873604,1.67362296 C5.51302884,1.54226595 5.02157232,1.43870239 4.58083745,1.36205995 C3.49813947,1.51085698 2.66388661,2.44586283 2.66388661,3.57710437 C2.66388661,4.81184199 3.65777216,5.8127946 4.88379212,5.8127946 C6.10981208,5.8127946 7.10369763,4.81184199 7.10369763,3.57710437 C7.10369763,2.77265661 6.68182368,2.06744342 6.04873604,1.67362296 Z" id="Rectangle-36"></path>
                    <ellipse id="Oval-20" cx="9.76758425" cy="4.9185185" rx="1.33194331" ry="1.34141414"></ellipse>
                </g>
                <ellipse id="Oval-25" stroke="#4A4A4A" sketch:type="MSShapeGroup" cx="9.32360314" cy="30.8525252" rx="2.21990551" ry="2.23569023"></ellipse>
                <ellipse id="Oval-26" stroke="#4A4A4A" sketch:type="MSShapeGroup" cx="58.1615244" cy="30.8525252" rx="2.21990551" ry="2.23569023"></ellipse>
                <path d="M7.48611104,12.8246527 C7.48611104,12.8246527 6.76247388,11.9129103 3.63206025,11.0264941 C0.501646616,10.1400778 0.189472404,9.97065443 0.189472404,9.44055132 C0.189472404,8.91044821 0.786505585,6.65161509 1.55957034,6.65161509 C2.33263509,6.65161509 8.70532477,7.67514202 8.70532477,7.67514202 C8.70532477,7.67514202 8.37624112,10.7121001 8.37624112,11.3539878 C8.37624112,11.9958754 9.65051892,12.2194444 9.65051892,12.2194444" id="Path-19" stroke="#4A4A4A" fill="#4A4A4A" sketch:type="MSShapeGroup"></path>
                <path d="M65.458163,12.8801083 C65.458163,12.8801083 64.7345258,11.9683659 61.6041122,11.0819497 C58.4736986,10.1955334 58.1615244,10.02611 58.1615244,9.49600692 C58.1615244,8.9659038 58.7585575,6.70707069 59.5316223,6.70707069 C60.3046871,6.70707069 66.6773767,7.73059762 66.6773767,7.73059762 C66.6773767,7.73059762 66.3482931,10.7675557 66.3482931,11.4094434 C66.3482931,12.051331 67.6225709,12.2749 67.6225709,12.2749" id="Path-20" stroke="#4A4A4A" fill="#4A4A4A" sketch:type="MSShapeGroup" transform="translate(62.892048, 9.793590) scale(-1, 1) translate(-62.892048, -9.793590) "></path>
                <path d="M33.5752037,13.5045296 C27.5975011,13.3000908 9.30062365,12.2233743 9.30062365,12.2233743 C9.30062365,12.2233743 12.576285,3.27668349 14.1228481,2.49812184 C15.6694112,1.71956018 19.7723342,0.0585122052 33.5752037,0.0585122052 C47.3780732,0.0585122052 53.4021684,1.59991582 54.0356219,2.32476851 C54.6690754,3.0496212 57.9182886,10.5754261 58.7793692,12.2307975 C59.2016174,13.0425424 39.5529063,13.7089684 33.5752037,13.5045296 Z" id="Path-21" stroke="#4A4A4A" fill="#4A4A4A" sketch:type="MSShapeGroup"></path>
                <g id="Path-22-+-Path-23-+-Path-22-+-Path-24" transform="translate(16.622222, 12.907407)" stroke-linecap="round" stroke="#4A4A4A" sketch:type="MSShapeGroup">
                    <g id="Path-22-+-Path-23" transform="translate(30.148253, 0.000000)">
                        <path d="M0.205651929,0.249449824 L4.53076417,4.88788325" id="Path-23" transform="translate(2.349713, 2.549017) scale(-1, 1) translate(-2.349713, -2.549017) "></path>
                    </g>
                    <g id="Path-22-+-Path-24" transform="translate(2.478890, 2.277778) scale(-1, 1) translate(-2.478890, -2.277778) translate(0.350477, 0.000000)">
                        <path d="M0.205651929,0.249449824 L4.53076417,4.88788325" id="Path-23" transform="translate(2.349713, 2.549017) scale(-1, 1) translate(-2.349713, -2.549017) "></path>
                    </g>
                </g>
                <path d="M18.9876043,27.7225588 C17.3283837,27.7225588 16.1587524,29.0476602 16.3779639,30.7034369 L16.4766376,31.4487515 C16.6945936,33.095045 18.2159592,34.4829486 19.8691676,34.5458129 C19.8691676,34.5458129 29.0129411,34.9278566 34.4189407,34.9278566 C39.5220156,34.9278566 48.0650554,34.5515096 48.0650554,34.5515096 C49.7179173,34.4841971 51.2332595,33.1045282 51.452471,31.4487515 L51.5511447,30.7034369 C51.7691007,29.0571434 50.6016524,27.7225588 48.9415044,27.7225588 L18.9876043,27.7225588 Z" id="Rectangle-41" stroke="#4A4A4A" fill="#4A4A4A" sketch:type="MSShapeGroup"></path>
                <path d="M20.833094,20.7919191 C19.3513009,20.7919191 18.7528037,21.8217417 19.5079916,23.1120456 L19.5079916,23.1120456 C20.2579508,24.393416 22.0587235,25.513975 23.5515098,25.6133508 C23.5515098,25.6133508 31.1990193,26.1575757 34.2183328,26.1575757 C37.0684594,26.1575757 44.3849724,25.6189815 44.3849724,25.6189815 C45.8641126,25.5158095 47.6659261,24.4023495 48.421114,23.1120456 L48.421114,23.1120456 C49.1710732,21.8306751 48.5777647,20.7919191 47.0960115,20.7919191 L20.833094,20.7919191 Z" id="Rectangle-42" stroke="#4A4A4A" fill="#4A4A4A" sketch:type="MSShapeGroup" transform="translate(33.963807, 23.474747) scale(1, -1) translate(-33.963807, -23.474747) "></path>
            </g>
        </g>
    </g>
</svg>