<?xml version="1.0" encoding="UTF-8" standalone="no"?>
<svg width="495px" height="156px" viewBox="0 0 495 156" version="1.1" xmlns="http://www.w3.org/2000/svg" xmlns:xlink="http://www.w3.org/1999/xlink" xmlns:sketch="http://www.bohemiancoding.com/sketch/ns">
    <!-- Generator: Sketch 3.1.1 (8761) - http://www.bohemiancoding.com/sketch -->
    <title>installation</title>
    <desc>Created with Sketch.</desc>
    <defs></defs>
    <g id="Page-1" stroke="none" stroke-width="1" fill="none" fill-rule="evenodd" sketch:type="MSPage">
        <g id="installation" sketch:type="MSArtboardGroup">
            <g id="Rectangle-15-+-Rectangle-17-+-Rectangle-18-+-Rectangle-25-+-Imported-Layers-2-+-Rectangle-26" sketch:type="MSLayerGroup" transform="translate(214.000000, 16.000000)">
                <g id="Rectangle-15-+-Rectangle-17-+-Rectangle-18" stroke="#9B9B9B" sketch:type="MSShapeGroup">
                    <path d="M9.00036621,0 C4.02960121,0 0,4.02441947 0,9.00024983 L0,88.9997502 C0,93.9704509 4.03083939,98 9.00036621,98 L47.9996338,98 C52.9703988,98 57,93.9755805 57,88.9997502 L57,9.00024983 C57,4.0295491 52.9691606,0 47.9996338,0 L9.00036621,0 Z M4.51166973,13.8205128 C3.40368975,13.8205128 2.50549451,14.7148758 2.50549451,15.8136166 L2.50549451,81.5581783 C2.50549451,82.6589391 3.40786114,83.5512821 4.51166973,83.5512821 L52.4883303,83.5512821 C53.5963103,83.5512821 54.4945055,82.656919 54.4945055,81.5581783 L54.4945055,15.8136166 C54.4945055,14.7128558 53.5921389,13.8205128 52.4883303,13.8205128 L4.51166973,13.8205128 Z" id="Rectangle-15" fill="#FFFFFF"></path>
                    <rect id="Rectangle-17" x="21.9230769" y="86.0641026" width="12.5274725" height="8.79487179" rx="4"></rect>
                    <rect id="Rectangle-17" x="21.9230769" y="5.65384615" width="12.5274725" height="2.51282051" rx="4"></rect>
                </g>
                <g id="Rectangle-25-+-Imported-Layers-2" transform="translate(13.273973, 22.944444)" sketch:type="MSShapeGroup">
                    <rect id="Rectangle-25" fill="#139DE9" x="0" y="0" width="30.4520548" height="30.3333333" rx="9"></rect>
                    <path d="M10.4037017,6.85934271 C14.6216158,4.4437634 20.0336252,5.88344616 22.4692509,10.0675634 C23.7284902,12.2314806 23.9960232,14.8347082 23.2022787,17.2088668 C22.982813,17.865322 22.2687592,18.2211634 21.6078325,18.0040186 C20.9462733,17.7868737 20.5876652,17.0777013 20.8071309,16.4212462 C21.3738202,14.7248806 21.1828155,12.8653427 20.2840817,11.3195979 C18.5441684,8.32914961 14.6785377,7.30304616 11.6661033,9.02828064 C8.65366894,10.7541427 7.61769003,14.5886944 9.35760332,17.5785151 C10.2576021,19.1248875 11.7843744,20.2181427 13.5457915,20.5808875 C14.229487,20.7195841 14.6684183,21.38106 14.5280109,22.0607358 C14.386971,22.7360186 13.7197196,23.1728186 13.0366566,23.0328668 C10.5687752,22.5264048 8.43104099,20.995722 7.17243414,18.8311772 C4.73744099,14.6464324 6.18768496,9.27492202 10.4037017,6.85934271 L10.4037017,6.85934271 Z M14.9897109,17.2433841 L18.14445,22.6644737 C18.4923062,23.2638186 19.2632819,23.4690393 19.8666543,23.1232393 C20.4706591,22.7774393 20.6774754,22.0130393 20.3296192,21.4130668 L17.1742476,15.9919772 C16.8263914,15.3926324 16.0541507,15.1880393 15.4514109,15.5338393 C14.8480385,15.8796393 14.6412222,16.6440393 14.9897109,17.2433841 L14.9897109,17.2433841 Z" id="Imported-Layers-2" fill="#FFFFFF"></path>
                </g>
                <path d="M29.5736301,70.2424242 L36.8938356,64.3501684 L33.380137,64.3501684 L33.380137,54.3333333 L22.8390411,54.3333333 L22.8390411,64.3501684 L22.8390411,64.3501684 L19.3253425,64.3501684 L26.6455479,70.2424242 L18.739726,70.2424242 L18.739726,73.7777778 L37.4794521,73.7777778 L37.4794521,70.2424242 L29.5736301,70.2424242 Z" id="Rectangle-26" fill="#D0EFFF" sketch:type="MSShapeGroup"></path>
            </g>
            <text id="CONNECT" sketch:type="MSTextLayer" font-family="Helvetica Neue" font-size="14" font-weight="bold" sketch:alignment="middle" fill="#139DE9">
                <tspan x="374.993" y="144">CONNECT</tspan>
            </text>
            <text id="DOWNLOAD" sketch:type="MSTextLayer" font-family="Helvetica Neue" font-size="14" font-weight="bold" sketch:alignment="middle" fill="#139DE9">
                <tspan x="200.493" y="144">DOWNLOAD</tspan>
            </text>
            <text id="INSTALL" sketch:type="MSTextLayer" font-family="Helvetica Neue" font-size="14" font-weight="bold" sketch:alignment="middle" fill="#139DE9">
                <tspan x="51.475" y="144">INSTALL</tspan>
            </text>
            <g id="Connect" sketch:type="MSLayerGroup" transform="translate(349.000000, 31.000000)">
                <path d="M72.3492539,19.2850396 C77.9620278,18.8808164 83.7047519,20.9808008 87.7106337,24.9359601 C88.235525,25.4763017 88.1670766,26.4215253 87.6133207,26.9167137 C87.1047181,27.5162815 86.0861954,27.5268811 85.5613041,26.9428235 C82.1344496,23.6437035 77.2961075,21.8597317 72.5453172,22.2145499 C68.5986016,22.4684619 64.7753089,24.168475 61.9114325,26.8913225 C61.6567419,27.1516422 61.3315069,27.3653715 60.9569867,27.3836963 C60.0188295,27.4937048 59.1512168,26.5132091 59.3536877,25.5955326 C59.4108179,25.2661057 59.6223914,24.991713 59.8643264,24.7722946 C63.2171632,21.5620438 67.7182933,19.5904527 72.3492539,19.2850396 Z M72.2103209,24.7892421 C76.5104174,24.3215408 80.9756165,25.9065749 84.0186087,28.97927 C84.4940351,29.5224262 84.4348089,30.4105794 83.9065042,30.8987014 C83.4246701,31.4883882 82.4533966,31.5546209 81.907366,31.0199085 C79.95907,29.0991596 77.3250918,27.8795434 74.5938604,27.6798871 C71.2770145,27.4047757 67.8883066,28.6631974 65.5266251,31.0002063 C64.9820317,31.5758202 63.967641,31.5103061 63.477483,30.8979229 C62.9491183,30.3992612 62.9054023,29.4870941 63.4125677,28.9587894 C65.7531099,26.6169298 68.9182074,25.1271128 72.2103209,24.7892421 Z M72.8458796,30.2200855 C75.5595047,29.9506633 78.3649335,30.9897265 80.2532247,32.9549698 C80.7702711,33.4931556 80.7103862,34.4193956 80.1657329,34.9173986 C79.6712631,35.5142117 78.6801677,35.5544544 78.1427006,34.9950095 C77.078306,33.9024091 75.6039394,33.2117564 74.0774728,33.1285163 C72.345062,33.0050336 70.5921107,33.6893386 69.3618948,34.906799 C69.0592963,35.2468854 68.6099199,35.4556443 68.1500037,35.4013885 C67.082076,35.3265324 66.3407007,33.900912 67.0763869,33.0452763 C68.5619521,31.4341325 70.6718175,30.4359706 72.8458796,30.2200855 Z M73.2641757,35.2912003 C75.0128752,34.9977642 76.7876246,36.4417692 76.8440961,38.2150215 C77.0063244,39.95384 75.4713541,41.6038491 73.7263076,41.5656426 C72.1575024,41.6200181 70.7036164,40.3185392 70.5660607,38.7582376 C70.3423906,37.1202653 71.6233888,35.480257 73.2641757,35.2912003 Z" id="Shape" fill="#139DE9" sketch:type="MSShapeGroup" transform="translate(73.696450, 30.401522) rotate(50.000000) translate(-73.696450, -30.401522) "></path>
                <g id="Rectangle-15-+-Rectangle-17-+-Rectangle-18-+-Rectangle-25-+-Imported-Layers-2-+-Rectangle-26" transform="translate(85.750000, 0.000000)" sketch:type="MSShapeGroup">
                    <g id="Rectangle-15-+-Rectangle-17-+-Rectangle-18" stroke="#9B9B9B">
                        <path d="M5.00691225,0 C2.24167097,0 0,2.23744713 0,4.99251164 L0,60.0074884 C0,62.7647764 2.23520515,65 5.00691225,65 L32.9930877,65 C35.758329,65 38,62.7625529 38,60.0074884 L38,4.99251164 C38,2.2352236 35.7647948,0 32.9930877,0 L5.00691225,0 Z M2.6499939,9.20000076 L2.6499939,55.4500008 L35.3499947,55.4500008 L35.3499947,9.20000076 L2.6499939,9.20000076 Z" id="Rectangle-15" fill="#FFFFFF"></path>
                        <rect id="Rectangle-17" fill="#D8D8D8" x="14.6153846" y="57.0833333" width="8.35164835" height="5.83333333" rx="4"></rect>
                        <rect id="Rectangle-17" fill="#D8D8D8" x="14.6153846" y="3.75" width="8.35164835" height="1.66666667" rx="4"></rect>
                    </g>
                    <g id="Rectangle-25-+-Imported-Layers-2" transform="translate(8.849315, 23.472222)">
                        <rect id="Rectangle-25" stroke="#139DE9" fill="#139DE9" x="0" y="0" width="20.3013699" height="20.1190476" rx="5"></rect>
                        <path d="M6.93580112,4.54956404 C9.74774386,2.94739409 13.3557502,3.90228572 14.9795006,6.67746552 C15.8189934,8.11271675 15.9973488,9.83934729 15.4681858,11.4140443 C15.3218754,11.8494483 14.8458395,12.0854655 14.4052217,11.9414409 C13.9641822,11.7974163 13.7251102,11.3270468 13.8714206,10.8916429 C14.2492134,9.76650247 14.121877,8.53313547 13.5227211,7.50789655 C12.3627789,5.52443596 9.7856918,4.84385715 7.77740221,5.98814532 C5.76911262,7.13284976 5.07846002,9.67617488 6.23840221,11.6592192 C6.83840139,12.6848744 7.85624961,13.4099926 9.03052769,13.6505887 C9.48632468,13.7425813 9.7789455,14.1813153 9.68534057,14.6321207 C9.59131399,15.0800123 9.14647975,15.3697266 8.6911044,15.2769015 C7.04585016,14.9409828 5.62069399,13.925734 4.78162276,12.4900665 C3.15829399,9.71447045 4.12512331,6.15173399 6.93580112,4.54956404 L6.93580112,4.54956404 Z M9.99314057,11.4369384 L12.0963,15.0325591 C12.3282041,15.4300837 12.842188,15.5661995 13.2444362,15.3368424 C13.647106,15.1074852 13.7849836,14.6004852 13.5530795,14.2025443 L11.4494984,10.6069236 C11.2175943,10.209399 10.7027671,10.0736995 10.3009406,10.3030567 C9.89869235,10.5324138 9.76081482,11.0394138 9.99314057,11.4369384 L9.99314057,11.4369384 Z" id="Imported-Layers-2" fill="#FFFFFF"></path>
                    </g>
                </g>
                <g id="Car" transform="translate(0.000000, 25.000000)" sketch:type="MSShapeGroup">
                    <path d="M2.84811511,25.5430203 C2.72781534,26.0172516 2.66388661,26.5138682 2.66388661,27.0252617 L2.66388661,34.6797887 C2.66388661,37.9988949 5.35117486,40.6895622 8.66543626,40.6895622 L11.3137133,40.6895622 C14.0586778,40.6895622 16.3732257,38.841683 17.0876614,36.3234878 L14.5078629,37.2176924 C14.5078629,37.2176924 4.4402446,36.4216645 3.69579581,35.6972484 C2.95134703,34.9728324 2.84772254,30.5049452 2.84772254,25.7082543 C2.84772254,25.6529927 2.84785363,25.5979149 2.84811511,25.5430203 Z" id="Rectangle-33" stroke="#000000" fill="#4A4A4A"></path>
                    <path d="M50.8444741,36.3353458 C51.5624392,38.8493584 53.8745172,40.6895622 56.6153953,40.6895622 L59.2636724,40.6895622 C62.5782367,40.6895622 65.265222,37.9952182 65.265222,34.6797887 L65.265222,31.4856696 C65.1570902,33.676524 64.9410193,35.2870453 64.5194725,35.6972484 C63.7750237,36.4216645 53.7074054,37.2176924 53.7074054,37.2176924 L51.0669318,36.3024568 C51.0669318,36.3024568 50.9922157,36.3142811 50.8444741,36.3353458 Z" id="Rectangle-33" stroke="#000000" fill="#4A4A4A"></path>
                    <path d="M33.8856436,13.5726073 C25.3783157,13.4592976 9.31970097,12.3386521 9.31970097,12.3386521 C9.31970097,12.3386521 6.41864867,12.6705124 4.90503731,15.0852325 C3.39142596,17.4999526 2.40374144,20.9115635 2.40374144,25.7082543 C2.40374144,30.5049452 2.50736593,34.9728324 3.25181471,35.6972484 C3.99626349,36.4216645 14.0638818,37.2176924 14.0638818,37.2176924 L16.7043554,36.3024568 C16.7043554,36.3024568 22.7421329,37.2579787 33.5894729,37.2918741 C33.6886097,37.2927977 33.7873206,37.2927204 33.8856436,37.2925672 C33.9839666,37.2927204 34.0826775,37.2927977 34.1817755,37.2927977 C45.0291543,37.2579787 51.0669318,36.3024568 51.0669318,36.3024568 L53.7074054,37.2176924 C53.7074054,37.2176924 63.7750237,36.4216645 64.5194725,35.6972484 C65.2639213,34.9728324 65.3675458,30.5049452 65.3675458,25.7082543 C65.3675458,20.9115635 64.3798612,17.4999526 62.8662499,15.0852325 C61.3526385,12.6705124 58.4515862,12.3386521 58.4515862,12.3386521 C58.4515862,12.3386521 42.3929716,13.4592976 33.8856436,13.5726073 Z" id="Path-15" stroke="#4A4A4A" fill="#FFFFFF"></path>
                    <g id="Headlight" transform="translate(3.995830, 16.096970)" stroke="#4A4A4A" fill="#D8D8D8">
                        <path d="M8.76840235,2.40596404 C4.6712516,2.40596404 1.77285916,2.94148647 1.06251357,3.49363976 C0.352167973,4.04579305 1.00993638,6.86419891 2.1670497,8.02311719 C2.69325069,8.55013898 5.53545832,9.74774372 6.2769538,9.67328666 C7.01844927,9.59882961 10.7319945,8.70743287 10.7319945,8.70743287 C12.3453481,8.32949568 14.1502987,6.77109435 14.758668,5.23872727 L14.558661,5.74250712 C15.1691777,4.2047311 14.3311669,2.75251582 12.6821533,2.57462846 C12.6821533,2.57462846 12.8655531,2.40596404 8.76840235,2.40596404 Z" id="Rectangle-35" transform="translate(8.014160, 6.041285) rotate(20.000000) translate(-8.014160, -6.041285) "></path>
                        <path d="M9.46389087,2.70357574 C8.99061149,2.53748286 8.53300771,2.38571719 8.0932787,2.24798228 L8.0932787,2.24798228 C7.22455509,2.80564656 6.64836066,3.78452742 6.64836066,4.89894262 C6.64836066,6.63389155 8.04488463,8.04034555 9.76758425,8.04034555 C11.4902839,8.04034555 12.8868078,6.63389155 12.8868078,4.89894262 C12.8868078,4.56677341 12.8356168,4.24664553 12.7407466,3.94612415 C12.4278244,3.81460453 12.0002583,3.643632 11.4163947,3.42151514 C11.7713793,3.81782495 11.9874898,4.34275462 11.9874898,4.9185185 C11.9874898,6.15325612 10.9936042,7.15420873 9.76758425,7.15420873 C8.54156429,7.15420873 7.54767873,6.15325612 7.54767873,4.9185185 C7.54767873,3.78753425 8.38155216,2.85269644 9.46389087,2.70357574 Z" id="Rectangle-37"></path>
                        <path d="M6.04873604,1.67362296 C5.51302884,1.54226595 5.02157232,1.43870239 4.58083745,1.36205995 C3.49813947,1.51085698 2.66388661,2.44586283 2.66388661,3.57710437 C2.66388661,4.81184199 3.65777216,5.8127946 4.88379212,5.8127946 C6.10981208,5.8127946 7.10369763,4.81184199 7.10369763,3.57710437 C7.10369763,2.77265661 6.68182368,2.06744342 6.04873604,1.67362296 Z" id="Rectangle-36"></path>
                        <ellipse id="Oval-20" cx="9.76758425" cy="4.9185185" rx="1.33194331" ry="1.34141414"></ellipse>
                    </g>
                    <g id="Headlight-2" transform="translate(55.999945, 22.171044) scale(-1, 1) translate(-55.999945, -22.171044) translate(48.066612, 16.096970)" stroke="#4A4A4A" fill="#D8D8D8">
                        <path d="M8.76840235,2.40596404 C4.6712516,2.40596404 1.77285916,2.94148647 1.06251357,3.49363976 C0.352167973,4.04579305 1.00993638,6.86419891 2.1670497,8.02311719 C2.69325069,8.55013898 5.53545832,9.74774372 6.2769538,9.67328666 C7.01844927,9.59882961 10.7319945,8.70743287 10.7319945,8.70743287 C12.3453481,8.32949568 14.1502987,6.77109435 14.758668,5.23872727 L14.558661,5.74250712 C15.1691777,4.2047311 14.3311669,2.75251582 12.6821533,2.57462846 C12.6821533,2.57462846 12.8655531,2.40596404 8.76840235,2.40596404 Z" id="Rectangle-35" transform="translate(8.014160, 6.041285) rotate(20.000000) translate(-8.014160, -6.041285) "></path>
                        <path d="M9.46389087,2.70357574 C8.99061149,2.53748286 8.53300771,2.38571719 8.0932787,2.24798228 L8.0932787,2.24798228 C7.22455509,2.80564656 6.64836066,3.78452742 6.64836066,4.89894262 C6.64836066,6.63389155 8.04488463,8.04034555 9.76758425,8.04034555 C11.4902839,8.04034555 12.8868078,6.63389155 12.8868078,4.89894262 C12.8868078,4.56677341 12.8356168,4.24664553 12.7407466,3.94612415 C12.4278244,3.81460453 12.0002583,3.643632 11.4163947,3.42151514 C11.7713793,3.81782495 11.9874898,4.34275462 11.9874898,4.9185185 C11.9874898,6.15325612 10.9936042,7.15420873 9.76758425,7.15420873 C8.54156429,7.15420873 7.54767873,6.15325612 7.54767873,4.9185185 C7.54767873,3.78753425 8.38155216,2.85269644 9.46389087,2.70357574 Z" id="Rectangle-37"></path>
                        <path d="M6.04873604,1.67362296 C5.51302884,1.54226595 5.02157232,1.43870239 4.58083745,1.36205995 C3.49813947,1.51085698 2.66388661,2.44586283 2.66388661,3.57710437 C2.66388661,4.81184199 3.65777216,5.8127946 4.88379212,5.8127946 C6.10981208,5.8127946 7.10369763,4.81184199 7.10369763,3.57710437 C7.10369763,2.77265661 6.68182368,2.06744342 6.04873604,1.67362296 Z" id="Rectangle-36"></path>
                        <ellipse id="Oval-20" cx="9.76758425" cy="4.9185185" rx="1.33194331" ry="1.34141414"></ellipse>
                    </g>
                    <ellipse id="Oval-25" stroke="#4A4A4A" cx="9.32360314" cy="30.8525252" rx="2.21990551" ry="2.23569023"></ellipse>
                    <ellipse id="Oval-26" stroke="#4A4A4A" cx="58.1615244" cy="30.8525252" rx="2.21990551" ry="2.23569023"></ellipse>
                    <path d="M7.48611104,12.8246527 C7.48611104,12.8246527 6.76247388,11.9129103 3.63206025,11.0264941 C0.501646616,10.1400778 0.189472404,9.97065443 0.189472404,9.44055132 C0.189472404,8.91044821 0.786505585,6.65161509 1.55957034,6.65161509 C2.33263509,6.65161509 8.70532477,7.67514202 8.70532477,7.67514202 C8.70532477,7.67514202 8.37624112,10.7121001 8.37624112,11.3539878 C8.37624112,11.9958754 9.65051892,12.2194444 9.65051892,12.2194444" id="Path-19" stroke="#4A4A4A" fill="#4A4A4A"></path>
                    <path d="M65.458163,12.8801083 C65.458163,12.8801083 64.7345258,11.9683659 61.6041122,11.0819497 C58.4736986,10.1955334 58.1615244,10.02611 58.1615244,9.49600692 C58.1615244,8.9659038 58.7585575,6.70707069 59.5316223,6.70707069 C60.3046871,6.70707069 66.6773767,7.73059762 66.6773767,7.73059762 C66.6773767,7.73059762 66.3482931,10.7675557 66.3482931,11.4094434 C66.3482931,12.051331 67.6225709,12.2749 67.6225709,12.2749" id="Path-20" stroke="#4A4A4A" fill="#4A4A4A" transform="translate(62.892048, 9.793590) scale(-1, 1) translate(-62.892048, -9.793590) "></path>
                    <path d="M33.5752037,13.5045296 C27.5975011,13.3000908 9.30062365,12.2233743 9.30062365,12.2233743 C9.30062365,12.2233743 12.576285,3.27668349 14.1228481,2.49812184 C15.6694112,1.71956018 19.7723342,0.0585122052 33.5752037,0.0585122052 C47.3780732,0.0585122052 53.4021684,1.59991582 54.0356219,2.32476851 C54.6690754,3.0496212 57.9182886,10.5754261 58.7793692,12.2307975 C59.2016174,13.0425424 39.5529063,13.7089684 33.5752037,13.5045296 Z" id="Path-21" stroke="#4A4A4A" fill="#4A4A4A"></path>
                    <g id="Path-22-+-Path-23-+-Path-22-+-Path-24" transform="translate(16.622222, 12.907407)" stroke-linecap="round" stroke="#4A4A4A">
                        <g id="Path-22-+-Path-23" transform="translate(30.148253, 0.000000)">
                            <path d="M0.205651929,0.249449824 L4.53076417,4.88788325" id="Path-23" transform="translate(2.349713, 2.549017) scale(-1, 1) translate(-2.349713, -2.549017) "></path>
                        </g>
                        <g id="Path-22-+-Path-24" transform="translate(2.478890, 2.277778) scale(-1, 1) translate(-2.478890, -2.277778) translate(0.350477, 0.000000)">
                            <path d="M0.205651929,0.249449824 L4.53076417,4.88788325" id="Path-23" transform="translate(2.349713, 2.549017) scale(-1, 1) translate(-2.349713, -2.549017) "></path>
                        </g>
                    </g>
                    <path d="M18.9876043,27.7225588 C17.3283837,27.7225588 16.1587524,29.0476602 16.3779639,30.7034369 L16.4766376,31.4487515 C16.6945936,33.095045 18.2159592,34.4829486 19.8691676,34.5458129 C19.8691676,34.5458129 29.0129411,34.9278566 34.4189407,34.9278566 C39.5220156,34.9278566 48.0650554,34.5515096 48.0650554,34.5515096 C49.7179173,34.4841971 51.2332595,33.1045282 51.452471,31.4487515 L51.5511447,30.7034369 C51.7691007,29.0571434 50.6016524,27.7225588 48.9415044,27.7225588 L18.9876043,27.7225588 Z" id="Rectangle-41" fill="#4A4A4A"></path>
                    <path d="M20.833094,20.7919191 C19.3513009,20.7919191 18.7528037,21.8217417 19.5079916,23.1120456 L19.5079916,23.1120456 C20.2579508,24.393416 22.0587235,25.513975 23.5515098,25.6133508 C23.5515098,25.6133508 31.1990193,26.1575757 34.2183328,26.1575757 C37.0684594,26.1575757 44.3849724,25.6189815 44.3849724,25.6189815 C45.8641126,25.5158095 47.6659261,24.4023495 48.421114,23.1120456 L48.421114,23.1120456 C49.1710732,21.8306751 48.5777647,20.7919191 47.0960115,20.7919191 L20.833094,20.7919191 Z" id="Rectangle-42" stroke="#4A4A4A" fill="#4A4A4A" transform="translate(33.963400, 23.474747) scale(1, -1) translate(-33.963400, -23.474747) "></path>
                </g>
            </g>
            <g id="Install" sketch:type="MSLayerGroup" transform="translate(13.000000, 11.000000)">
                <path d="M140.027023,70.4183953 C136.01042,73.8575515 130.507484,76.0276898 125.618389,76.0276898 C119.759715,76.0276898 114.621205,72.9114632 111.737099,68.2295937 C109.578991,67.2375782 107.059599,66.4266172 104.590246,66.4266172 L35.0087865,66.4266172 C28.7683075,66.4266172 21.5860878,69.1557793 17.1093181,71.1844688 L17.1093181,71.1844688 C14.5680186,73.2532214 11.337005,74.4915182 7.81981996,74.4915182 C-0.364940598,74.4915182 -7,67.7857854 -7,59.5138449 C-7,51.2419044 -0.364940598,44.5361716 7.81981996,44.5361716 C11.4482389,44.5361716 14.7720993,45.8540312 17.3483479,48.041978 C21.9889253,50.0454522 29.0709877,52.6010726 35.0028491,52.6010726 L104.541262,52.6010726 C107.100957,52.6010726 109.57152,51.8545879 111.663987,50.9179164 L111.663987,50.9179164 C114.533834,46.1694696 119.709877,43 125.618389,43 C130.537163,43 136.077253,45.1965656 140.100006,48.6720661 L126.868996,48.5185574 L120.632464,59.4362207 L126.969172,70.4117208 L140.027023,70.4183953 Z M18.6474663,65.86933 L15.8697959,67.4901004 L14.1565279,70.489345 L10.7565056,70.4737049 L7.81981996,72.1872608 L4.83646403,70.4464728 L1.58328818,70.4315083 L-0.056398217,67.5914881 L-3.04000667,65.8505528 L-3.04000667,62.4237267 L-4.75341975,59.4560082 L-3.04000667,56.4565098 L-3.04000667,53.177137 L-0.230156022,51.5375894 L1.48311203,48.5383448 L4.88313432,48.5539849 L7.81981996,46.840429 L10.8031759,48.581217 L10.8031759,48.581217 L14.0563517,48.5961815 L15.6960381,51.4362017 L18.6474123,53.1583283 C18.6581687,53.1728846 18.6689136,53.1874407 18.6796466,53.2019963 L18.6796466,56.6039631 L20.3930597,59.5716816 L18.6796466,62.57118 L18.6796466,65.8231406 C18.6689308,65.8385378 18.6582039,65.8539343 18.6474663,65.86933 L18.6474663,65.86933 Z" id="Oval-13" fill="#D0EFFF" sketch:type="MSShapeGroup" transform="translate(66.550003, 59.513845) rotate(-40.000000) translate(-66.550003, -59.513845) "></path>
                <path d="M140.027023,70.4183953 C136.01042,73.8575515 130.507484,76.0276898 125.618389,76.0276898 C119.759715,76.0276898 114.621205,72.9114632 111.737099,68.2295937 C109.578991,67.2375782 107.059599,66.4266172 104.590246,66.4266172 L35.0087865,66.4266172 C28.7683075,66.4266172 21.5860878,69.1557793 17.1093181,71.1844688 L17.1093181,71.1844688 C14.5680186,73.2532214 11.337005,74.4915182 7.81981996,74.4915182 C-0.364940598,74.4915182 -7,67.7857854 -7,59.5138449 C-7,51.2419044 -0.364940598,44.5361716 7.81981996,44.5361716 C11.4482389,44.5361716 14.7720993,45.8540312 17.3483479,48.041978 C21.9889253,50.0454522 29.0709877,52.6010726 35.0028491,52.6010726 L104.541262,52.6010726 C107.100957,52.6010726 109.57152,51.8545879 111.663987,50.9179164 L111.663987,50.9179164 C114.533834,46.1694696 119.709877,43 125.618389,43 C130.537163,43 136.077253,45.1965656 140.100006,48.6720661 L126.868996,48.5185574 L120.632464,59.4362207 L126.969172,70.4117208 L140.027023,70.4183953 Z M18.6474663,65.86933 L15.8697959,67.4901004 L14.1565279,70.489345 L10.7565056,70.4737049 L7.81981996,72.1872608 L4.83646403,70.4464728 L1.58328818,70.4315083 L-0.056398217,67.5914881 L-3.04000667,65.8505528 L-3.04000667,62.4237267 L-4.75341975,59.4560082 L-3.04000667,56.4565098 L-3.04000667,53.177137 L-0.230156022,51.5375894 L1.48311203,48.5383448 L4.88313432,48.5539849 L7.81981996,46.840429 L10.8031759,48.581217 L10.8031759,48.581217 L14.0563517,48.5961815 L15.6960381,51.4362017 L18.6474123,53.1583283 C18.6581687,53.1728846 18.6689136,53.1874407 18.6796466,53.2019963 L18.6796466,56.6039631 L20.3930597,59.5716816 L18.6796466,62.57118 L18.6796466,65.8231406 C18.6689308,65.8385378 18.6582039,65.8539343 18.6474663,65.86933 L18.6474663,65.86933 Z" id="Oval-14" fill="#D0EFFF" sketch:type="MSShapeGroup" transform="translate(66.550003, 59.513845) rotate(-140.000000) translate(-66.550003, -59.513845) "></path>
                <g id="Car" transform="translate(21.000000, 32.000000)" sketch:type="MSShapeGroup">
                    <path d="M3.81586521,31.83655 C3.62750279,32.4198607 3.52573228,33.0423344 3.52573228,33.6888441 L3.52573228,47.5812222 C3.52573228,50.900403 6.2118541,53.5911307 9.528533,53.5911307 L16.9144591,53.5911307 C20.1415182,53.5911307 22.7738212,51.0446405 22.9115925,47.8449887 C22.7685482,47.8243655 22.6963277,47.8129918 22.6963277,47.8129918 L19.2015833,49.0184242 C19.2015833,49.0184242 5.87679432,47.9699971 4.89149446,47.0158882 C3.9061946,46.0617793 3.76904453,40.1772449 3.76904453,33.8596521 C3.76904453,33.1633527 3.78492417,32.4892135 3.81586521,31.83655 Z" id="Rectangle-33" stroke="#000000" fill="#4A4A4A"></path>
                    <path d="M66.9970745,47.8974166 C67.1612237,51.0696164 69.7810175,53.5911307 72.9917141,53.5911307 L80.3776402,53.5911307 C83.6928955,53.5911307 86.3804409,50.9035462 86.3804409,47.5812222 L86.3804409,41.4689307 C86.2373252,44.3544462 85.951349,46.4756206 85.3934195,47.0158882 C84.4081196,47.9699971 71.0833306,49.0184242 71.0833306,49.0184242 L67.5885862,47.8129918 C67.5885862,47.8129918 67.3892814,47.8443794 66.9970745,47.8974166 Z" id="Rectangle-33" stroke="#000000" fill="#4A4A4A"></path>
                    <path d="M44.8486459,17.876117 C33.5889472,17.7268798 12.3348983,16.2509077 12.3348983,16.2509077 C12.3348983,16.2509077 8.49527029,16.6879919 6.49196115,19.868355 C4.488652,23.0487181 3.18142249,27.5420592 3.18142249,33.8596521 C3.18142249,40.1772449 3.31857256,46.0617793 4.30387241,47.0158882 C5.28917227,47.9699971 18.6139613,49.0184242 18.6139613,49.0184242 L22.1087057,47.8129918 C22.1087057,47.8129918 30.0998818,49.0714842 44.4566553,49.1161268 C44.5878658,49.1173433 44.7185126,49.1172415 44.8486459,49.1170398 C44.9787793,49.1172415 45.1094261,49.1173433 45.2405853,49.1173433 C59.5974101,49.0714842 67.5885862,47.8129918 67.5885862,47.8129918 L71.0833306,49.0184242 C71.0833306,49.0184242 84.4081196,47.9699971 85.3934195,47.0158882 C86.3787193,46.0617793 86.5158694,40.1772449 86.5158694,33.8596521 C86.5158694,27.5420592 85.2086399,23.0487181 83.2053307,19.868355 C81.2020216,16.6879919 77.3623936,16.2509077 77.3623936,16.2509077 C77.3623936,16.2509077 56.108342,17.72688 44.8486438,17.876117 Z" id="Path-15" stroke="#4A4A4A" fill="#FFFFFF"></path>
                    <g id="Headlight" transform="translate(5.288598, 21.200887)" stroke="#4A4A4A" fill="#D8D8D8">
                        <path d="M11.6052384,3.16883069 C6.18253888,3.16883069 2.34643124,3.87415291 1.40626796,4.60137919 C0.46610467,5.32860548 1.3366805,9.04065222 2.86815402,10.5670324 C3.5645965,11.2611587 7.3263419,12.8384917 8.30773297,12.7404263 C9.28912404,12.6423609 15.1526317,11.2491602 15.1526317,11.2491602 C16.7640988,10.8724313 18.5710485,9.31227281 19.1837225,7.77659089 L19.6186247,6.6864983 C20.2334676,5.14538011 19.4029964,3.68375808 17.7535638,3.48357312 C17.7535638,3.48357312 17.0279379,3.16883069 11.6052384,3.16883069 Z" id="Rectangle-35" transform="translate(10.606976, 7.956814) rotate(20.000000) translate(-10.606976, -7.956814) "></path>
                        <path d="M12.518988,3.56174052 C11.8950756,3.34272927 11.2917607,3.14248084 10.711917,2.96061369 L10.711917,2.96061369 C9.56201046,3.69507392 8.79930088,4.98440396 8.79930088,6.45226589 C8.79930088,8.73732058 10.6476414,10.5897234 12.927685,10.5897234 C15.2077286,10.5897234 17.0560692,8.73732058 17.0560692,6.45226589 C17.0560692,6.02528099 16.9915314,5.61340281 16.8716988,5.22589454 C16.4054653,5.02932041 15.8319932,4.7975554 15.1273963,4.52595939 C15.5868443,5.04557986 15.8657953,5.72916646 15.8657953,6.47804876 C15.8657953,8.10428855 14.5503585,9.42261638 12.927685,9.42261638 C11.3050116,9.42261638 9.9895748,8.10428855 9.9895748,6.47804876 C9.9895748,4.99080024 11.0897653,3.76107974 12.518988,3.56174052 Z" id="Rectangle-37"></path>
                        <path d="M7.99074412,2.19509968 C7.2999623,2.02548348 6.6649082,1.89077012 6.09351399,1.78990651 C4.64566072,1.97239603 3.52573228,3.21077802 3.52573228,4.71130819 C3.52573228,6.33754798 4.84116904,7.65587581 6.46384252,7.65587581 C8.08651599,7.65587581 9.40195275,6.33754798 9.40195275,4.71130819 C9.40195275,3.64550866 8.83694832,2.71196302 7.99074412,2.19509968 Z" id="Rectangle-36"></path>
                        <ellipse id="Oval-20" cx="12.927685" cy="6.47804876" rx="1.76286614" ry="1.76674057"></ellipse>
                    </g>
                    <g id="Headlight-2" transform="translate(74.117575, 29.200887) scale(-1, 1) translate(-74.117575, -29.200887) translate(63.617575, 21.200887)" stroke="#4A4A4A" fill="#D8D8D8">
                        <path d="M11.6052384,3.16883069 C6.18253888,3.16883069 2.34643124,3.87415291 1.40626796,4.60137919 C0.46610467,5.32860548 1.3366805,9.04065222 2.86815402,10.5670324 C3.5645965,11.2611587 7.3263419,12.8384917 8.30773297,12.7404263 C9.28912404,12.6423609 15.1526317,11.2491602 15.1526317,11.2491602 C16.7640988,10.8724313 18.5710485,9.31227281 19.1837225,7.77659089 L19.6186247,6.6864983 C20.2334676,5.14538011 19.4029964,3.68375808 17.7535638,3.48357312 C17.7535638,3.48357312 17.0279379,3.16883069 11.6052384,3.16883069 Z" id="Rectangle-35" transform="translate(10.606976, 7.956814) rotate(20.000000) translate(-10.606976, -7.956814) "></path>
                        <path d="M12.518988,3.56174052 C11.8950756,3.34272927 11.2917607,3.14248084 10.711917,2.96061369 L10.711917,2.96061369 C9.56201046,3.69507392 8.79930088,4.98440396 8.79930088,6.45226589 C8.79930088,8.73732058 10.6476414,10.5897234 12.927685,10.5897234 C15.2077286,10.5897234 17.0560692,8.73732058 17.0560692,6.45226589 C17.0560692,6.02528099 16.9915314,5.61340281 16.8716988,5.22589454 C16.4054653,5.02932041 15.8319932,4.7975554 15.1273963,4.52595939 C15.5868443,5.04557986 15.8657953,5.72916646 15.8657953,6.47804876 C15.8657953,8.10428855 14.5503585,9.42261638 12.927685,9.42261638 C11.3050116,9.42261638 9.9895748,8.10428855 9.9895748,6.47804876 C9.9895748,4.99080024 11.0897653,3.76107974 12.518988,3.56174052 Z" id="Rectangle-37"></path>
                        <path d="M7.99074412,2.19509968 C7.2999623,2.02548348 6.6649082,1.89077012 6.09351399,1.78990651 C4.64566072,1.97239603 3.52573228,3.21077802 3.52573228,4.71130819 C3.52573228,6.33754798 4.84116904,7.65587581 6.46384252,7.65587581 C8.08651599,7.65587581 9.40195275,6.33754798 9.40195275,4.71130819 C9.40195275,3.64550866 8.83694832,2.71196302 7.99074412,2.19509968 Z" id="Rectangle-36"></path>
                        <ellipse id="Oval-20" cx="12.927685" cy="6.47804876" rx="1.76286614" ry="1.76674057"></ellipse>
                    </g>
                    <ellipse id="Oval-25" stroke="#4A4A4A" cx="12.340063" cy="40.6350331" rx="2.93811023" ry="2.94456762"></ellipse>
                    <ellipse id="Oval-26" stroke="#4A4A4A" cx="76.9784881" cy="40.6350331" rx="2.93811023" ry="2.94456762"></ellipse>
                    <path d="M9.90808815,16.8910061 C9.90808815,16.8910061 8.95033307,15.6901746 4.80713856,14.5226995 C0.663944051,13.3552245 0.250772299,13.1320814 0.250772299,12.4338969 C0.250772299,11.7357123 1.04096327,8.76066378 2.06413721,8.76066378 C3.08731114,8.76066378 11.5217534,10.1087236 11.5217534,10.1087236 C11.5217534,10.1087236 11.0862015,14.1086197 11.0862015,14.9540327 C11.0862015,15.7994456 12.7727456,16.0939024 12.7727456,16.0939024" id="Path-19" stroke="#4A4A4A" fill="#4A4A4A"></path>
                    <path d="M86.635804,16.9640451 C86.635804,16.9640451 85.6780489,15.7632136 81.5348544,14.5957386 C77.3916599,13.4282635 76.9784881,13.2051205 76.9784881,12.5069359 C76.9784881,11.8087514 77.7686791,8.83370286 78.791853,8.83370286 C79.815027,8.83370286 88.2494692,10.1817627 88.2494692,10.1817627 C88.2494692,10.1817627 87.8139173,14.1816588 87.8139173,15.0270717 C87.8139173,15.8724847 89.5004615,16.1669415 89.5004615,16.1669415" id="Path-20" stroke="#4A4A4A" fill="#4A4A4A" transform="translate(83.239475, 12.898874) scale(-1, 1) translate(-83.239475, -12.898874) "></path>
                    <path d="M44.4377696,17.7864537 C36.5261044,17.5171928 12.309649,16.0990784 12.309649,16.0990784 C12.309649,16.0990784 16.6450831,4.31563192 18.6920048,3.29020925 C20.7389265,2.26478658 26.1692658,0.0770648557 44.4377696,0.0770648557 C62.7062734,0.0770648557 70.6793405,2.1072062 71.5177348,3.06189024 C72.3561292,4.01657427 76.6565585,13.92861 77.7962239,16.1088553 C78.3550819,17.1779827 52.3494348,18.0557145 44.4377696,17.7864537 Z" id="Path-21" stroke="#4A4A4A" fill="#4A4A4A"></path>
                    <g id="Path-22-+-Path-23-+-Path-22-+-Path-24" transform="translate(22.000000, 17.000000)" stroke-linecap="round" stroke="#4A4A4A">
                        <g id="Path-22-+-Path-23" transform="translate(39.902100, 0.000000)">
                            <path d="M0.272186376,0.328543671 L5.99659963,6.43769989" id="Path-23" transform="translate(3.109914, 3.357242) scale(-1, 1) translate(-3.109914, -3.357242) "></path>
                        </g>
                        <g id="Path-22-+-Path-24" transform="translate(3.280884, 3.000000) scale(-1, 1) translate(-3.280884, -3.000000) translate(0.463867, 0.000000)">
                            <path d="M0.272186376,0.328543671 L5.99659963,6.43769989" id="Path-23" transform="translate(3.109914, 3.357242) scale(-1, 1) translate(-3.109914, -3.357242) "></path>
                        </g>
                    </g>
                    <path d="M24.1498543,36.5126385 C22.4955071,36.5126385 21.3303396,37.8351331 21.5490023,39.4787079 L21.9350291,42.3802719 C22.1529655,44.0183868 23.6693064,45.3994852 25.3226688,45.4629009 C25.3226688,45.4629009 38.3994809,46.0025428 45.5544803,46.0025428 C52.30855,46.0025428 64.5800858,45.468998 64.5800858,45.468998 C66.2349792,45.4012566 67.7524813,44.0238468 67.971144,42.3802719 L68.3571708,39.4787079 C68.5751072,37.840593 67.4039534,36.5126385 65.7563189,36.5126385 L24.1498543,36.5126385 Z" id="Rectangle-41" stroke="#4A4A4A" fill="#4A4A4A"></path>
                    <path d="M27.0159541,27.3844789 C25.3625227,27.3844789 24.6982493,28.5340152 25.5465424,29.9763274 L26.0922588,30.904183 C26.9341565,32.3356214 28.9560009,33.5876402 30.603833,33.6974819 C30.603833,33.6974819 41.2928197,34.4514411 45.2889699,34.4514411 C49.0611962,34.4514411 59.2992032,33.7045196 59.2992032,33.7045196 C60.9507094,33.5893748 62.9656171,32.3464952 63.8139102,30.904183 L64.3596267,29.9763274 C65.2015244,28.544889 64.5386106,27.3844789 62.8902149,27.3844789 L27.0159541,27.3844789 Z" id="Rectangle-42" stroke="#4A4A4A" fill="#4A4A4A" transform="translate(44.952098, 30.917960) scale(1, -1) translate(-44.952098, -30.917960) "></path>
                </g>
            </g>
            <path d="M175.25,73 L150.75,73 L150.75,67 L175.25,67 L175.25,62.5 L191.25,70 L175.25,77.5 L175.25,73 Z" id="Rectangle-35" fill="#139DE9" sketch:type="MSShapeGroup"></path>
            <path d="M316.25,73.5 L291.75,73.5 L291.75,67.5 L316.25,67.5 L316.25,63 L332.25,70.5 L316.25,78 L316.25,73.5 Z" id="Rectangle-35" fill="#139DE9" sketch:type="MSShapeGroup"></path>
        </g>
    </g>
</svg>