<?xml version="1.0" encoding="utf-8"?>
<!-- Generator: Adobe Illustrator 16.0.4, SVG Export Plug-In . SVG Version: 6.00 Build 0)  -->
<!DOCTYPE svg PUBLIC "-//W3C//DTD SVG 1.1//EN" "http://www.w3.org/Graphics/SVG/1.1/DTD/svg11.dtd">
<svg version="1.1" id="Layer_1" xmlns="http://www.w3.org/2000/svg" xmlns:xlink="http://www.w3.org/1999/xlink" x="0px" y="0px"
	 width="150px" height="50px" viewBox="0 0 150 50" enable-background="new 0 0 150 50" xml:space="preserve">
<g enable-background="new    ">
	<g>
		<defs>
			<rect id="SVGID_1_" y="8.5" width="150" height="31"/>
		</defs>
		<clipPath id="SVGID_2_">
			<use xlink:href="#SVGID_1_"  overflow="visible"/>
		</clipPath>
		<g clip-path="url(#SVGID_2_)">
			<defs>
				<rect id="SVGID_3_" x="-37" y="-14.5" width="1024" height="2662"/>
			</defs>
			<clipPath id="SVGID_4_">
				<use xlink:href="#SVGID_3_"  overflow="visible"/>
			</clipPath>
			<g clip-path="url(#SVGID_4_)">
				<defs>
					<path id="SVGID_5_" d="M147.262,32.659c4.154-5.805,3.659-13.98-1.541-19.365c-5.849-6.057-15.435-6.288-21.411-0.516
						c-5.978,5.772-6.081,15.36-0.232,21.417c5.157,5.341,13.222,6.151,19.154,2.311l-2.504-2.593
						c-4.498,2.544-10.352,1.807-14.153-2.129c-4.498-4.659-4.419-12.035,0.179-16.475c4.598-4.44,11.972-4.263,16.471,0.396
						c3.845,3.98,4.346,9.945,1.541,14.367L147.262,32.659z"/>
				</defs>
				<clipPath id="SVGID_6_">
					<use xlink:href="#SVGID_5_"  overflow="visible"/>
				</clipPath>
				<g clip-path="url(#SVGID_6_)">
					<defs>
						<rect id="SVGID_7_" y="8.5" width="150" height="31"/>
					</defs>
					<clipPath id="SVGID_8_">
						<use xlink:href="#SVGID_7_"  overflow="visible"/>
					</clipPath>
					
						<rect x="114.758" y="3.597" clip-path="url(#SVGID_8_)" fill-rule="evenodd" clip-rule="evenodd" width="40.282" height="40.297"/>
				</g>
			</g>
		</g>
		<g clip-path="url(#SVGID_2_)">
			<defs>
				<rect id="SVGID_9_" x="-37" y="-14.5" width="1024" height="2662"/>
			</defs>
			<clipPath id="SVGID_10_">
				<use xlink:href="#SVGID_9_"  overflow="visible"/>
			</clipPath>
			<g clip-path="url(#SVGID_10_)">
				<defs>
					<path id="SVGID_11_" d="M138.233,27.217c-0.664,0.641-0.688,1.694-0.048,2.356l8.674,8.981c0.638,0.66,1.688,0.68,2.356,0.034
						c0.664-0.642,0.688-1.694,0.048-2.356l-8.673-8.981C139.953,26.591,138.902,26.57,138.233,27.217z"/>
				</defs>
				<clipPath id="SVGID_12_">
					<use xlink:href="#SVGID_11_"  overflow="visible"/>
				</clipPath>
				<g clip-path="url(#SVGID_12_)">
					<defs>
						<rect id="SVGID_13_" y="8.5" width="150" height="31"/>
					</defs>
					<clipPath id="SVGID_14_">
						<use xlink:href="#SVGID_13_"  overflow="visible"/>
					</clipPath>
					
						<rect x="132.721" y="21.744" clip-path="url(#SVGID_14_)" fill-rule="evenodd" clip-rule="evenodd" width="22.009" height="22.317"/>
				</g>
			</g>
		</g>
		<g clip-path="url(#SVGID_2_)">
			<defs>
				<rect id="SVGID_15_" x="-37" y="-14.5" width="1024" height="2662"/>
			</defs>
			<clipPath id="SVGID_16_">
				<use xlink:href="#SVGID_15_"  overflow="visible"/>
			</clipPath>
			<g clip-path="url(#SVGID_16_)">
				<defs>
					<rect id="SVGID_17_" y="8.5" width="139.961" height="31"/>
				</defs>
				<clipPath id="SVGID_18_">
					<use xlink:href="#SVGID_17_"  overflow="visible"/>
				</clipPath>
				<g clip-path="url(#SVGID_18_)">
					<path fill="#FFFFFF" d="M1.399,37.3v-4.201h24.635c0.483,0,0.936-0.089,1.356-0.268c0.42-0.178,0.783-0.426,1.088-0.745
						c0.306-0.318,0.547-0.688,0.726-1.107c0.178-0.42,0.268-0.871,0.268-1.355c0-0.967-0.332-1.789-0.993-2.464
						c-0.663-0.675-1.477-1.012-2.444-1.012H7.701c-1.044,0-2.031-0.197-2.96-0.592c-0.93-0.395-1.745-0.941-2.444-1.642
						c-0.701-0.7-1.254-1.515-1.662-2.444C0.228,20.54,0.024,19.54,0.024,18.47c0-1.069,0.197-2.068,0.592-2.998
						c0.395-0.929,0.942-1.744,1.643-2.444c0.7-0.7,1.515-1.254,2.444-1.662c0.929-0.407,1.929-0.611,2.998-0.611h24.597v4.163
						H7.701c-0.993,0-1.802,0.338-2.425,1.012c-0.624,0.675-0.974,1.483-1.05,2.425c0.076,1.019,0.439,1.871,1.088,2.559
						s1.445,1.031,2.387,1.031h18.333c1.043,0,2.03,0.204,2.96,0.611c0.929,0.408,1.738,0.955,2.425,1.642s1.235,1.496,1.642,2.426
						s0.611,1.916,0.611,2.959c0,1.07-0.198,2.076-0.592,3.018c-0.395,0.943-0.936,1.758-1.623,2.445s-1.496,1.234-2.425,1.642
						c-0.93,0.407-1.929,0.611-2.998,0.611H1.399z"/>
					<path fill="#FFFFFF" d="M54.45,37.3v-7.944h-3.132c-1.528,0-2.954-0.286-4.277-0.859c-1.324-0.572-2.483-1.355-3.476-2.349
						c-1.019-1.018-1.814-2.19-2.387-3.514c-0.573-1.323-0.859-2.75-0.859-4.277v-7.524h4.201v7.524
						c0,0.917,0.178,1.789,0.535,2.616c0.356,0.828,0.84,1.553,1.452,2.177c0.611,0.625,1.323,1.114,2.139,1.471
						c0.814,0.357,1.693,0.535,2.635,0.535h10.274c0.917,0,1.789-0.178,2.616-0.535c0.827-0.356,1.553-0.84,2.177-1.452
						c0.624-0.611,1.114-1.323,1.471-2.139c0.356-0.814,0.535-1.681,0.535-2.597v-7.601h4.201v7.524
						c0,1.528-0.287,2.954-0.859,4.277c-0.573,1.324-1.369,2.496-2.387,3.514c-0.993,0.993-2.152,1.776-3.476,2.349
						c-1.324,0.573-2.75,0.859-4.278,0.859h-2.902V37.3H54.45z"/>
					<path fill="#FFFFFF" d="M105.706,36.994c-0.357-0.152-0.688-0.344-0.993-0.572c-0.306-0.229-0.625-0.535-0.955-0.917
						c-1.35-1.554-2.757-3.195-4.221-4.927s-2.94-3.477-4.431-5.233c-1.489-1.757-2.966-3.495-4.43-5.213
						c-1.465-1.719-2.859-3.367-4.183-4.946c-0.306-0.305-0.688-0.458-1.146-0.458c-0.408,0-0.771,0.102-1.089,0.306
						c-0.318,0.204-0.49,0.522-0.516,0.955V37.3h-4.163V15.682l0.038-0.114c0.051-0.789,0.248-1.502,0.592-2.139
						c0.344-0.636,0.789-1.171,1.337-1.604c0.548-0.433,1.158-0.764,1.834-0.993c0.674-0.229,1.355-0.344,2.043-0.344
						c0.814,0,1.598,0.16,2.349,0.478c0.751,0.319,1.407,0.847,1.967,1.585c2.878,3.387,5.742,6.76,8.594,10.122
						s5.729,6.748,8.632,10.159c0.127,0.128,0.299,0.242,0.516,0.344c0.216,0.103,0.426,0.153,0.63,0.153
						c0.356,0,0.688-0.115,0.993-0.344c0.306-0.229,0.497-0.535,0.573-0.917V10.755h4.201v21.618
						c-0.076,0.789-0.293,1.502-0.649,2.139s-0.796,1.184-1.317,1.643c-0.522,0.458-1.114,0.809-1.776,1.05s-1.35,0.363-2.062,0.363
						c-0.382,0-0.782-0.045-1.203-0.134C106.45,37.344,106.062,37.198,105.706,36.994z"/>
				</g>
			</g>
		</g>
	</g>
</g>
</svg>
