<?xml version="1.0" encoding="utf-8"?>
<!-- Generator: Adobe Illustrator 16.0.0, SVG Export Plug-In . SVG Version: 6.00 Build 0)  -->
<!DOCTYPE svg PUBLIC "-//W3C//DTD SVG 1.1//EN" "http://www.w3.org/Graphics/SVG/1.1/DTD/svg11.dtd">
<svg version="1.1" id="Layer_1" xmlns="http://www.w3.org/2000/svg" xmlns:xlink="http://www.w3.org/1999/xlink" x="0px" y="0px"
	 width="800px" height="300px" viewBox="0 0 800 300" enable-background="new 0 0 800 300" xml:space="preserve">
<path fill="#010101" d="M658.26,61.174c38.988-22.51,89.023-9.096,111.539,29.885c11.637,20.162,14.111,44.416,6.771,66.537
	c-2.029,6.117-8.627,9.426-14.738,7.406c-6.115-2.021-9.428-8.629-7.398-14.748c5.232-15.803,3.473-33.127-4.838-47.531
	c-16.084-27.857-51.82-37.42-79.668-21.346c-27.854,16.08-37.428,51.807-21.342,79.664c8.314,14.402,22.43,24.59,38.713,27.971
	c6.328,1.291,10.381,7.451,9.084,13.779c-1.301,6.299-7.477,10.365-13.787,9.061c-22.814-4.717-42.574-18.982-54.215-39.143
	C605.871,133.721,619.281,83.678,658.26,61.174z M700.654,157.916l29.16,50.502c3.221,5.586,10.344,7.498,15.926,4.279
	c5.578-3.223,7.492-10.352,4.271-15.934l-29.162-50.508c-3.223-5.582-10.355-7.49-15.934-4.266
	C699.338,145.205,697.432,152.334,700.654,157.916z"/>
<rect x="-94.605" fill="none" width="329.75" height="125.25"/>
<g enable-background="new    ">
	<g>
		<g>
			<path fill="#2AACE3" d="M90.174,211.199c-14.237,0-25.957-0.62-34.833-1.843c-9.082-1.249-16.33-3.578-21.542-6.921
				c-5.369-3.438-9.069-8.189-10.999-14.121c-1.848-5.669-2.786-12.983-2.786-21.738v-6.801h21.472v6.416
				c0,5.249,0.573,9.476,1.702,12.561c1.043,2.858,3.076,5.009,6.216,6.578c3.334,1.671,8.227,2.798,14.544,3.35
				c6.495,0.567,15.125,0.855,25.649,0.855h29.377c10.931,0,19.826-0.256,26.439-0.762c6.463-0.49,11.476-1.501,14.899-3.005
				c3.19-1.398,5.237-3.252,6.259-5.667c1.105-2.621,1.666-6.204,1.666-10.646v-7.68c0-2.92-0.371-5.315-1.102-7.12
				c-0.652-1.601-1.916-2.867-3.863-3.869c-2.143-1.1-5.244-1.902-9.213-2.385c-4.14-0.5-9.55-0.753-16.079-0.753
				c-9.454,0-19.219,0.16-29.023,0.478c-9.709,0.319-19.518,0.481-29.152,0.481c-8.495,0-16.353-0.392-23.355-1.164
				c-7.201-0.792-13.451-2.579-18.578-5.312c-5.24-2.786-9.383-6.792-12.314-11.904c-2.915-5.08-4.393-11.907-4.393-20.292v-8.064
				c0-7.756,0.945-14.285,2.808-19.403c1.947-5.354,5.631-9.646,10.95-12.755c5.138-3.003,12.302-5.124,21.293-6.303
				c8.81-1.158,20.364-1.746,34.341-1.746h27.646c13.435,0,24.785,0.521,33.734,1.548c9.084,1.049,16.446,2.957,21.88,5.67
				c5.633,2.818,9.688,6.782,12.051,11.783c2.293,4.86,3.456,11.09,3.456,18.519v6.033h-21.473v-4.496
				c0-3.673-0.727-6.627-2.161-8.78c-1.411-2.116-3.89-3.826-7.367-5.083c-3.714-1.339-8.835-2.27-15.22-2.768
				c-6.536-0.505-14.785-0.762-24.517-0.762H89.598c-10.116,0-18.46,0.256-24.801,0.761c-6.165,0.495-11.002,1.448-14.375,2.833
				c-3.124,1.283-5.131,2.989-6.136,5.213c-1.093,2.411-1.647,5.685-1.647,9.735v7.873c0,3.321,0.439,6.147,1.306,8.401
				c0.789,2.05,2.37,3.686,4.836,5.002c2.655,1.416,6.428,2.439,11.212,3.043c4.935,0.627,11.601,0.945,19.814,0.945
				c11.276,0,22.751-0.193,34.108-0.575c11.34-0.383,22.862-0.577,34.243-0.577c7.59,0,14.091,0.839,19.324,2.493
				c5.322,1.687,9.681,4.098,12.956,7.167c3.299,3.093,5.704,6.823,7.149,11.089c1.409,4.163,2.124,8.708,2.124,13.507v8.641
				c0,8.11-0.907,14.944-2.696,20.312c-1.869,5.609-5.509,10.134-10.821,13.447c-5.15,3.209-12.391,5.469-21.524,6.716
				c-8.941,1.223-20.822,1.843-35.312,1.843H90.174z"/>
		</g>
		<g>
			<path fill="#2AACE3" d="M273.646,209.088V157.42l-83.378-83.378l15.096-15.329l86.479,86.48c2.156,2.003,3.275,4.563,3.275,7.559
				v56.336H273.646z M305.248,129.524l71.375-70.772l15.546,15.074l-71.592,70.792L305.248,129.524z"/>
		</g>
		<g>
			<path fill="#2AACE3" d="M570.859,209.088V63.584h21.471v145.504H570.859z M403.244,209.088V74.416
				c0-6.985,3.915-10.832,11.023-10.832h29.184c1.694,0,3.174,0.289,4.396,0.859c1.122,0.524,2.212,1.237,3.24,2.118l0.061,0.052
				L558.2,174.249l-15.094,15.331L439.162,85.057h-14.447v124.031H403.244z"/>
		</g>
	</g>
</g>
<g enable-background="new    ">
</g>
<g enable-background="new    ">
	<path fill="#010101" d="M51.087,261.402l-2.48,1.332L36.92,242.059h-2.914l-11.688,20.676l-2.479-1.332L31.96,239.98
		c0.268-0.496,0.682-0.744,1.239-0.744h4.588c0.517,0,0.92,0.248,1.209,0.744L51.087,261.402z M36.92,251.141h-2.945v-2.82h2.945
		V251.141z"/>
	<path fill="#010101" d="M77.004,254.428h2.82v0.34c0,0.973-0.041,1.84-0.125,2.604c-0.082,0.766-0.268,1.432-0.557,2
		c-0.291,0.568-0.713,1.049-1.271,1.441s-1.303,0.709-2.232,0.945c-0.93,0.238-2.088,0.408-3.471,0.512
		c-1.385,0.104-3.039,0.156-4.96,0.156h-2.171c-1.942,0-3.601-0.053-4.975-0.156c-1.375-0.104-2.532-0.273-3.473-0.512
		c-0.94-0.236-1.685-0.562-2.231-0.977c-0.548-0.412-0.972-0.93-1.271-1.549c-0.3-0.621-0.491-1.365-0.573-2.232
		c-0.083-0.867-0.124-1.871-0.124-3.008v-6.633c0-1.137,0.041-2.139,0.124-3.008c0.082-0.867,0.273-1.611,0.573-2.232
		c0.3-0.619,0.724-1.135,1.271-1.549c0.547-0.414,1.291-0.738,2.231-0.977s2.098-0.408,3.473-0.512
		c1.374-0.104,3.032-0.154,4.975-0.154h2.171c1.922,0,3.576,0.051,4.96,0.154c1.383,0.104,2.541,0.273,3.471,0.512
		s1.674,0.562,2.232,0.977s0.98,0.93,1.271,1.549c0.289,0.621,0.475,1.365,0.557,2.232c0.084,0.869,0.125,1.871,0.125,3.008v0.371
		h-2.82v-0.371c0-1.24-0.068-2.227-0.203-2.961c-0.135-0.732-0.516-1.291-1.146-1.674s-1.607-0.635-2.93-0.76
		c-1.322-0.123-3.162-0.186-5.517-0.186h-2.171c-1.57,0-2.909,0.025-4.014,0.078c-1.106,0.051-2.021,0.145-2.744,0.277
		c-0.724,0.135-1.292,0.332-1.705,0.59s-0.724,0.594-0.93,1.008c-0.207,0.414-0.331,0.914-0.372,1.504
		c-0.042,0.588-0.062,1.297-0.062,2.123v6.633c0,0.807,0.02,1.51,0.062,2.109c0.041,0.6,0.165,1.105,0.372,1.518
		c0.206,0.414,0.517,0.75,0.93,1.008c0.413,0.26,0.981,0.455,1.705,0.59s1.633,0.227,2.729,0.279
		c1.095,0.051,2.438,0.076,4.029,0.076h2.171c2.355,0,4.195-0.057,5.517-0.17s2.299-0.346,2.93-0.697s1.012-0.838,1.146-1.457
		s0.203-1.447,0.203-2.48V254.428z"/>
	<path fill="#010101" d="M107.816,254.428h2.82v0.34c0,0.973-0.041,1.84-0.123,2.604c-0.082,0.766-0.27,1.432-0.559,2
		s-0.713,1.049-1.271,1.441c-0.557,0.393-1.301,0.709-2.23,0.945c-0.93,0.238-2.088,0.408-3.473,0.512s-3.037,0.156-4.959,0.156
		H95.85c-1.941,0-3.6-0.053-4.975-0.156s-2.531-0.273-3.473-0.512c-0.939-0.236-1.684-0.562-2.23-0.977
		c-0.549-0.412-0.973-0.93-1.271-1.549c-0.301-0.621-0.492-1.365-0.574-2.232s-0.123-1.871-0.123-3.008v-6.633
		c0-1.137,0.041-2.139,0.123-3.008c0.082-0.867,0.273-1.611,0.574-2.232c0.299-0.619,0.723-1.135,1.271-1.549
		c0.547-0.414,1.291-0.738,2.23-0.977c0.941-0.238,2.098-0.408,3.473-0.512s3.033-0.154,4.975-0.154h2.172
		c1.922,0,3.574,0.051,4.959,0.154s2.543,0.273,3.473,0.512s1.674,0.562,2.23,0.977c0.559,0.414,0.982,0.93,1.271,1.549
		c0.289,0.621,0.477,1.365,0.559,2.232c0.082,0.869,0.123,1.871,0.123,3.008v0.371h-2.82v-0.371c0-1.24-0.066-2.227-0.201-2.961
		c-0.135-0.732-0.518-1.291-1.146-1.674c-0.631-0.383-1.607-0.635-2.93-0.76c-1.324-0.123-3.162-0.186-5.518-0.186H95.85
		c-1.57,0-2.908,0.025-4.014,0.078c-1.105,0.051-2.02,0.145-2.744,0.277c-0.723,0.135-1.291,0.332-1.705,0.59
		c-0.412,0.258-0.723,0.594-0.93,1.008s-0.33,0.914-0.371,1.504c-0.043,0.588-0.062,1.297-0.062,2.123v6.633
		c0,0.807,0.02,1.51,0.062,2.109c0.041,0.6,0.164,1.105,0.371,1.518c0.207,0.414,0.518,0.75,0.93,1.008
		c0.414,0.26,0.982,0.455,1.705,0.59c0.725,0.135,1.633,0.227,2.729,0.279c1.096,0.051,2.439,0.076,4.029,0.076h2.172
		c2.355,0,4.193-0.057,5.518-0.17c1.322-0.113,2.299-0.346,2.93-0.697c0.629-0.352,1.012-0.838,1.146-1.457s0.201-1.447,0.201-2.48
		V254.428z"/>
	<path fill="#010101" d="M136.926,262.084h-21.049c-0.932,0-1.396-0.484-1.396-1.457v-19.965c0-0.949,0.465-1.426,1.396-1.426
		h21.018v2.822h-19.592v17.205h19.623V262.084z M136.119,251.141h-2.977v-2.82h2.977V251.141z"/>
	<path fill="#010101" d="M160.393,249.312c1.197,0,2.205,0.129,3.021,0.387c0.816,0.26,1.473,0.621,1.969,1.086
		s0.852,1.018,1.07,1.658c0.217,0.641,0.324,1.332,0.324,2.076v1.395c0,1.283-0.139,2.342-0.418,3.178
		c-0.279,0.838-0.816,1.504-1.611,2c-0.797,0.496-1.912,0.842-3.35,1.039c-1.436,0.195-3.322,0.295-5.656,0.295h-4.713
		c-2.293,0-4.154-0.1-5.58-0.295c-1.426-0.197-2.541-0.553-3.348-1.07c-0.807-0.516-1.354-1.219-1.643-2.107
		s-0.434-2.025-0.434-3.41v-0.775h2.82v0.713c0,0.889,0.098,1.602,0.295,2.139c0.195,0.539,0.584,0.951,1.162,1.24
		c0.578,0.291,1.4,0.48,2.465,0.574s2.453,0.139,4.17,0.139h4.742c1.777,0,3.209-0.041,4.293-0.123
		c1.086-0.082,1.922-0.254,2.512-0.512s0.98-0.619,1.178-1.086c0.197-0.465,0.295-1.078,0.295-1.844v-1.24
		c0-0.516-0.068-0.939-0.201-1.271c-0.135-0.33-0.393-0.594-0.775-0.789c-0.383-0.197-0.914-0.336-1.596-0.42
		c-0.684-0.082-1.562-0.123-2.637-0.123c-1.549,0-3.115,0.025-4.695,0.078c-1.582,0.051-3.146,0.076-4.697,0.076
		c-1.363,0-2.609-0.061-3.734-0.186c-1.127-0.123-2.088-0.398-2.885-0.822c-0.795-0.422-1.414-1.021-1.859-1.797
		c-0.443-0.775-0.666-1.814-0.666-3.115v-1.303c0-1.219,0.145-2.227,0.434-3.021c0.289-0.797,0.832-1.426,1.627-1.893
		c0.797-0.465,1.902-0.789,3.318-0.977c1.414-0.186,3.25-0.277,5.502-0.277h4.465c2.17,0,3.973,0.082,5.408,0.248
		c1.438,0.164,2.578,0.459,3.426,0.883s1.447,1.008,1.799,1.752c0.35,0.744,0.525,1.693,0.525,2.852v0.65h-2.82v-0.402
		c0-0.662-0.135-1.193-0.402-1.596c-0.27-0.404-0.719-0.719-1.35-0.947c-0.631-0.227-1.477-0.381-2.541-0.465
		c-1.064-0.082-2.393-0.123-3.984-0.123h-4.68c-1.654,0-2.998,0.041-4.031,0.123c-1.033,0.084-1.84,0.244-2.418,0.48
		c-0.578,0.238-0.965,0.574-1.162,1.008s-0.295,1.004-0.295,1.705v1.271c0,0.578,0.078,1.068,0.232,1.473
		c0.156,0.402,0.465,0.729,0.93,0.977c0.467,0.248,1.105,0.424,1.924,0.527c0.814,0.104,1.895,0.154,3.238,0.154
		c1.84,0,3.678-0.031,5.518-0.094C156.713,249.344,158.553,249.312,160.393,249.312z"/>
	<path fill="#010101" d="M190.834,249.312c1.197,0,2.205,0.129,3.021,0.387c0.816,0.26,1.473,0.621,1.969,1.086
		s0.852,1.018,1.07,1.658c0.217,0.641,0.324,1.332,0.324,2.076v1.395c0,1.283-0.139,2.342-0.418,3.178
		c-0.279,0.838-0.816,1.504-1.611,2c-0.797,0.496-1.912,0.842-3.35,1.039c-1.436,0.195-3.322,0.295-5.656,0.295h-4.713
		c-2.293,0-4.154-0.1-5.58-0.295c-1.426-0.197-2.541-0.553-3.348-1.07c-0.807-0.516-1.354-1.219-1.643-2.107
		s-0.434-2.025-0.434-3.41v-0.775h2.82v0.713c0,0.889,0.098,1.602,0.295,2.139c0.195,0.539,0.584,0.951,1.162,1.24
		c0.578,0.291,1.4,0.48,2.465,0.574s2.453,0.139,4.17,0.139h4.742c1.777,0,3.209-0.041,4.293-0.123
		c1.086-0.082,1.922-0.254,2.512-0.512s0.98-0.619,1.178-1.086c0.197-0.465,0.295-1.078,0.295-1.844v-1.24
		c0-0.516-0.068-0.939-0.201-1.271c-0.135-0.33-0.393-0.594-0.775-0.789c-0.383-0.197-0.914-0.336-1.596-0.42
		c-0.684-0.082-1.562-0.123-2.637-0.123c-1.549,0-3.115,0.025-4.695,0.078c-1.582,0.051-3.146,0.076-4.697,0.076
		c-1.363,0-2.609-0.061-3.734-0.186c-1.127-0.123-2.088-0.398-2.885-0.822c-0.795-0.422-1.414-1.021-1.859-1.797
		c-0.443-0.775-0.666-1.814-0.666-3.115v-1.303c0-1.219,0.145-2.227,0.434-3.021c0.289-0.797,0.832-1.426,1.627-1.893
		c0.797-0.465,1.902-0.789,3.318-0.977c1.414-0.186,3.25-0.277,5.502-0.277h4.465c2.17,0,3.973,0.082,5.408,0.248
		c1.438,0.164,2.578,0.459,3.426,0.883s1.447,1.008,1.799,1.752c0.35,0.744,0.525,1.693,0.525,2.852v0.65h-2.82v-0.402
		c0-0.662-0.135-1.193-0.402-1.596c-0.27-0.404-0.719-0.719-1.35-0.947c-0.631-0.227-1.477-0.381-2.541-0.465
		c-1.064-0.082-2.393-0.123-3.984-0.123h-4.68c-1.654,0-2.998,0.041-4.031,0.123c-1.033,0.084-1.84,0.244-2.418,0.48
		c-0.578,0.238-0.965,0.574-1.162,1.008s-0.295,1.004-0.295,1.705v1.271c0,0.578,0.078,1.068,0.232,1.473
		c0.156,0.402,0.465,0.729,0.93,0.977c0.467,0.248,1.105,0.424,1.924,0.527c0.814,0.104,1.895,0.154,3.238,0.154
		c1.84,0,3.678-0.031,5.518-0.094C187.154,249.344,188.994,249.312,190.834,249.312z"/>
	<path fill="#010101" d="M222.514,258.209v-6.51h-6.541v-2.82h6.541v-6.541h2.822v6.541h6.51v2.82h-6.51v6.51H222.514z"/>
	<path fill="#010101" d="M270.936,249.312c1.199,0,2.205,0.129,3.023,0.387c0.816,0.26,1.473,0.621,1.967,1.086
		c0.496,0.465,0.854,1.018,1.07,1.658s0.326,1.332,0.326,2.076v1.395c0,1.283-0.141,2.342-0.42,3.178
		c-0.277,0.838-0.816,1.504-1.611,2s-1.912,0.842-3.348,1.039c-1.438,0.195-3.322,0.295-5.658,0.295h-4.711
		c-2.295,0-4.154-0.1-5.58-0.295c-1.426-0.197-2.543-0.553-3.348-1.07c-0.807-0.516-1.355-1.219-1.645-2.107
		s-0.434-2.025-0.434-3.41v-0.775h2.822v0.713c0,0.889,0.098,1.602,0.293,2.139c0.197,0.539,0.584,0.951,1.164,1.24
		c0.578,0.291,1.398,0.48,2.463,0.574s2.455,0.139,4.17,0.139h4.744c1.775,0,3.207-0.041,4.293-0.123
		c1.084-0.082,1.922-0.254,2.51-0.512c0.59-0.258,0.982-0.619,1.18-1.086c0.195-0.465,0.293-1.078,0.293-1.844v-1.24
		c0-0.516-0.066-0.939-0.201-1.271c-0.135-0.33-0.393-0.594-0.775-0.789c-0.383-0.197-0.914-0.336-1.596-0.42
		c-0.682-0.082-1.561-0.123-2.635-0.123c-1.551,0-3.115,0.025-4.697,0.078c-1.58,0.051-3.146,0.076-4.695,0.076
		c-1.365,0-2.609-0.061-3.736-0.186c-1.127-0.123-2.088-0.398-2.883-0.822c-0.795-0.422-1.416-1.021-1.859-1.797
		c-0.445-0.775-0.668-1.814-0.668-3.115v-1.303c0-1.219,0.145-2.227,0.436-3.021c0.289-0.797,0.83-1.426,1.627-1.893
		c0.795-0.465,1.9-0.789,3.316-0.977c1.416-0.186,3.25-0.277,5.504-0.277h4.463c2.17,0,3.973,0.082,5.41,0.248
		c1.436,0.164,2.578,0.459,3.426,0.883c0.846,0.424,1.445,1.008,1.797,1.752s0.527,1.693,0.527,2.852v0.65h-2.82v-0.402
		c0-0.662-0.135-1.193-0.404-1.596c-0.268-0.404-0.717-0.719-1.348-0.947c-0.631-0.227-1.479-0.381-2.543-0.465
		c-1.064-0.082-2.393-0.123-3.982-0.123h-4.682c-1.654,0-2.996,0.041-4.029,0.123c-1.033,0.084-1.84,0.244-2.418,0.48
		c-0.58,0.238-0.967,0.574-1.162,1.008c-0.197,0.434-0.295,1.004-0.295,1.705v1.271c0,0.578,0.076,1.068,0.232,1.473
		c0.154,0.402,0.465,0.729,0.93,0.977s1.105,0.424,1.922,0.527s1.896,0.154,3.24,0.154c1.838,0,3.678-0.031,5.518-0.094
		C267.258,249.344,269.096,249.312,270.936,249.312z"/>
	<path fill="#010101" d="M303.92,262.084h-21.049c-0.932,0-1.396-0.484-1.396-1.457v-19.965c0-0.949,0.465-1.426,1.396-1.426h21.018
		v2.822h-19.592v17.205h19.623V262.084z M303.113,251.141h-2.977v-2.82h2.977V251.141z"/>
	<path fill="#010101" d="M331.633,254.428h2.82v0.34c0,0.973-0.041,1.84-0.123,2.604c-0.082,0.766-0.27,1.432-0.559,2
		s-0.713,1.049-1.271,1.441c-0.557,0.393-1.301,0.709-2.23,0.945c-0.93,0.238-2.088,0.408-3.473,0.512s-3.037,0.156-4.959,0.156
		h-2.172c-1.941,0-3.6-0.053-4.975-0.156s-2.531-0.273-3.473-0.512c-0.939-0.236-1.684-0.562-2.23-0.977
		c-0.549-0.412-0.973-0.93-1.271-1.549c-0.301-0.621-0.492-1.365-0.574-2.232s-0.123-1.871-0.123-3.008v-6.633
		c0-1.137,0.041-2.139,0.123-3.008c0.082-0.867,0.273-1.611,0.574-2.232c0.299-0.619,0.723-1.135,1.271-1.549
		c0.547-0.414,1.291-0.738,2.23-0.977c0.941-0.238,2.098-0.408,3.473-0.512s3.033-0.154,4.975-0.154h2.172
		c1.922,0,3.574,0.051,4.959,0.154s2.543,0.273,3.473,0.512s1.674,0.562,2.23,0.977c0.559,0.414,0.982,0.93,1.271,1.549
		c0.289,0.621,0.477,1.365,0.559,2.232c0.082,0.869,0.123,1.871,0.123,3.008v0.371h-2.82v-0.371c0-1.24-0.066-2.227-0.201-2.961
		c-0.135-0.732-0.518-1.291-1.146-1.674c-0.631-0.383-1.607-0.635-2.93-0.76c-1.324-0.123-3.162-0.186-5.518-0.186h-2.172
		c-1.57,0-2.908,0.025-4.014,0.078c-1.105,0.051-2.02,0.145-2.744,0.277c-0.723,0.135-1.291,0.332-1.705,0.59
		c-0.412,0.258-0.723,0.594-0.93,1.008s-0.33,0.914-0.371,1.504c-0.043,0.588-0.062,1.297-0.062,2.123v6.633
		c0,0.807,0.02,1.51,0.062,2.109c0.041,0.6,0.164,1.105,0.371,1.518c0.207,0.414,0.518,0.75,0.93,1.008
		c0.414,0.26,0.982,0.455,1.705,0.59c0.725,0.135,1.633,0.227,2.729,0.279c1.096,0.051,2.439,0.076,4.029,0.076h2.172
		c2.355,0,4.193-0.057,5.518-0.17c1.322-0.113,2.299-0.346,2.93-0.697c0.629-0.352,1.012-0.838,1.146-1.457s0.201-1.447,0.201-2.48
		V254.428z"/>
	<path fill="#010101" d="M363.561,239.236h2.822v14.756c0,1.137-0.041,2.141-0.123,3.008c-0.084,0.867-0.275,1.611-0.574,2.232
		c-0.301,0.619-0.723,1.137-1.271,1.549c-0.549,0.414-1.291,0.74-2.232,0.977c-0.939,0.238-2.098,0.408-3.473,0.512
		c-1.373,0.104-3.031,0.156-4.973,0.156h-2.945c-2.895,0-5.184-0.119-6.867-0.357c-1.684-0.236-2.951-0.666-3.797-1.287
		c-0.848-0.619-1.385-1.477-1.613-2.572c-0.227-1.096-0.34-2.5-0.34-4.217v-14.756h2.82v14.756c0,1.221,0.066,2.197,0.201,2.93
		c0.135,0.734,0.518,1.297,1.146,1.689c0.631,0.393,1.602,0.652,2.914,0.775c1.312,0.125,3.156,0.186,5.535,0.186h2.945
		c1.57,0,2.906-0.025,4.012-0.076c1.105-0.053,2.021-0.145,2.746-0.279c0.723-0.135,1.289-0.33,1.703-0.59
		c0.414-0.258,0.723-0.594,0.93-1.008c0.207-0.412,0.332-0.914,0.373-1.502c0.041-0.59,0.061-1.297,0.061-2.125V239.236z"/>
	<path fill="#010101" d="M398.344,247.266c0,0.93-0.062,1.717-0.186,2.355c-0.125,0.643-0.295,1.174-0.512,1.598
		s-0.461,0.764-0.729,1.023c-0.27,0.258-0.559,0.48-0.869,0.666c0.25,0.186,0.486,0.398,0.715,0.635
		c0.227,0.238,0.434,0.523,0.619,0.854s0.33,0.713,0.434,1.146s0.154,0.961,0.154,1.58v4.961h-2.789v-4.588
		c0-0.682-0.02-1.225-0.062-1.627c-0.041-0.404-0.148-0.719-0.324-0.945c-0.176-0.229-0.43-0.398-0.76-0.512
		s-0.775-0.244-1.334-0.389c-0.619-0.164-0.93-0.557-0.93-1.178c0-0.289,0.062-0.537,0.188-0.744
		c0.123-0.205,0.328-0.361,0.619-0.465c0.701-0.186,1.25-0.361,1.643-0.527c0.393-0.164,0.688-0.393,0.883-0.682
		c0.197-0.289,0.316-0.672,0.357-1.146s0.061-1.117,0.061-1.922c0-1.219-0.092-2.18-0.277-2.883
		c-0.188-0.703-0.559-1.234-1.117-1.598c-0.559-0.361-1.359-0.588-2.402-0.682s-2.412-0.139-4.105-0.139h-13.92v20.025h-2.854
		v-21.422c0-0.949,0.486-1.426,1.457-1.426h14.973c2.379,0,4.295,0.115,5.752,0.342s2.578,0.635,3.363,1.225
		c0.785,0.588,1.307,1.406,1.564,2.449C398.215,244.295,398.344,245.633,398.344,247.266z"/>
	<path fill="#010101" d="M405.568,262.084h-2.854v-22.848h2.854V262.084z"/>
	<path fill="#010101" d="M432.971,242.059h-24.367v-2.822h24.367V242.059z M422.15,262.084h-2.82v-16.957h2.82V262.084z"/>
	<path fill="#010101" d="M450.145,262.084h-2.822v-8.152l-13.328-13.33l1.984-2.016l13.73,13.732c0.289,0.27,0.436,0.6,0.436,0.992
		V262.084z M465.674,240.57l-11.098,10.975l-2.014-1.984l11.066-10.975L465.674,240.57z"/>
	<path fill="#010101" d="M505.666,242.059h-24.367v-2.822h24.367V242.059z M494.846,262.084h-2.82v-16.957h2.82V262.084z"/>
	<path fill="#010101" d="M531.178,262.084h-21.049c-0.932,0-1.396-0.484-1.396-1.457v-19.965c0-0.949,0.465-1.426,1.396-1.426
		h21.018v2.822h-19.592v17.205h19.623V262.084z M530.371,251.141h-2.975v-2.82h2.975V251.141z"/>
	<path fill="#010101" d="M558.893,254.428h2.82v0.34c0,0.973-0.043,1.84-0.125,2.604c-0.082,0.766-0.27,1.432-0.559,2
		s-0.711,1.049-1.27,1.441s-1.303,0.709-2.232,0.945c-0.93,0.238-2.088,0.408-3.471,0.512c-1.387,0.104-3.039,0.156-4.961,0.156
		h-2.172c-1.941,0-3.6-0.053-4.973-0.156c-1.375-0.104-2.533-0.273-3.473-0.512c-0.941-0.236-1.686-0.562-2.232-0.977
		c-0.549-0.412-0.971-0.93-1.271-1.549c-0.301-0.621-0.492-1.365-0.574-2.232s-0.123-1.871-0.123-3.008v-6.633
		c0-1.137,0.041-2.139,0.123-3.008c0.082-0.867,0.273-1.611,0.574-2.232c0.301-0.619,0.723-1.135,1.271-1.549
		c0.547-0.414,1.291-0.738,2.232-0.977c0.939-0.238,2.098-0.408,3.473-0.512c1.373-0.104,3.031-0.154,4.973-0.154h2.172
		c1.922,0,3.574,0.051,4.961,0.154c1.383,0.104,2.541,0.273,3.471,0.512s1.674,0.562,2.232,0.977s0.98,0.93,1.27,1.549
		c0.289,0.621,0.477,1.365,0.559,2.232c0.082,0.869,0.125,1.871,0.125,3.008v0.371h-2.82v-0.371c0-1.24-0.068-2.227-0.203-2.961
		c-0.135-0.732-0.516-1.291-1.146-1.674s-1.607-0.635-2.93-0.76c-1.322-0.123-3.162-0.186-5.518-0.186h-2.172
		c-1.57,0-2.908,0.025-4.012,0.078c-1.107,0.051-2.021,0.145-2.746,0.277c-0.723,0.135-1.291,0.332-1.703,0.59
		c-0.414,0.258-0.725,0.594-0.93,1.008c-0.207,0.414-0.332,0.914-0.373,1.504c-0.041,0.588-0.061,1.297-0.061,2.123v6.633
		c0,0.807,0.02,1.51,0.061,2.109s0.166,1.105,0.373,1.518c0.205,0.414,0.516,0.75,0.93,1.008c0.412,0.26,0.98,0.455,1.703,0.59
		c0.725,0.135,1.633,0.227,2.73,0.279c1.094,0.051,2.438,0.076,4.027,0.076h2.172c2.355,0,4.195-0.057,5.518-0.17
		s2.299-0.346,2.93-0.697s1.012-0.838,1.146-1.457s0.203-1.447,0.203-2.48V254.428z"/>
	<path fill="#010101" d="M568.377,262.084h-2.82v-22.848h2.82V262.084z M588.992,251.574h-18.631v-2.82h18.631V251.574z
		 M593.857,262.084h-2.82v-22.848h2.82V262.084z"/>
	<path fill="#010101" d="M622.689,256.783l-1.984,2.016l-16.648-16.74h-2.789v20.025h-2.82v-21.422c0-0.949,0.484-1.426,1.457-1.426
		h4.711c0.227,0,0.418,0.037,0.574,0.109c0.154,0.072,0.305,0.17,0.449,0.295L622.689,256.783z M628.33,262.084h-2.82v-22.848h2.82
		V262.084z"/>
	<path fill="#010101" d="M645.102,262.426c-1.943,0-3.602-0.053-4.975-0.156c-1.375-0.104-2.533-0.273-3.473-0.512
		c-0.941-0.236-1.684-0.562-2.232-0.977c-0.547-0.412-0.971-0.93-1.27-1.549c-0.301-0.621-0.492-1.365-0.574-2.232
		c-0.084-0.867-0.123-1.871-0.123-3.008v-6.633c0-1.137,0.039-2.139,0.123-3.008c0.082-0.867,0.273-1.611,0.574-2.232
		c0.299-0.619,0.723-1.135,1.27-1.549c0.549-0.414,1.291-0.738,2.232-0.977c0.939-0.238,2.098-0.408,3.473-0.512
		c1.373-0.104,3.031-0.154,4.975-0.154h4.434c1.922,0,3.574,0.051,4.959,0.154s2.543,0.273,3.473,0.512s1.674,0.562,2.232,0.977
		s0.98,0.93,1.271,1.549c0.289,0.621,0.475,1.365,0.557,2.232c0.082,0.869,0.125,1.871,0.125,3.008v6.633
		c0,1.137-0.043,2.141-0.125,3.008s-0.268,1.611-0.557,2.232c-0.291,0.619-0.713,1.137-1.271,1.549
		c-0.559,0.414-1.303,0.74-2.232,0.977c-0.93,0.238-2.088,0.408-3.473,0.512s-3.037,0.156-4.959,0.156H645.102z M659.33,247.359
		c0-1.24-0.066-2.227-0.201-2.961c-0.135-0.732-0.516-1.291-1.146-1.674s-1.607-0.635-2.93-0.76
		c-1.322-0.123-3.162-0.186-5.518-0.186h-4.434c-1.57,0-2.908,0.025-4.014,0.078c-1.105,0.051-2.021,0.145-2.744,0.277
		c-0.723,0.135-1.291,0.332-1.705,0.59s-0.723,0.594-0.93,1.008s-0.33,0.914-0.371,1.504c-0.043,0.588-0.062,1.297-0.062,2.123
		v6.633c0,0.807,0.02,1.51,0.062,2.109c0.041,0.6,0.164,1.105,0.371,1.518c0.207,0.414,0.516,0.75,0.93,1.008
		c0.414,0.26,0.982,0.455,1.705,0.59s1.633,0.227,2.729,0.279c1.096,0.051,2.438,0.076,4.029,0.076h4.434
		c2.355,0,4.195-0.061,5.518-0.186c1.322-0.123,2.299-0.383,2.93-0.775s1.012-0.955,1.146-1.689c0.135-0.732,0.201-1.709,0.201-2.93
		V247.359z"/>
	<path fill="#010101" d="M687.479,262.084H667.67c-0.93,0-1.395-0.484-1.395-1.457v-21.391h2.82v20.027h18.383V262.084z"/>
	<path fill="#010101" d="M702.08,262.426c-1.943,0-3.602-0.053-4.975-0.156c-1.375-0.104-2.533-0.273-3.473-0.512
		c-0.941-0.236-1.684-0.562-2.232-0.977c-0.547-0.412-0.971-0.93-1.27-1.549c-0.301-0.621-0.492-1.365-0.574-2.232
		s-0.125-1.871-0.125-3.008v-6.633c0-1.137,0.043-2.139,0.125-3.008c0.082-0.867,0.273-1.611,0.574-2.232
		c0.299-0.619,0.723-1.135,1.27-1.549c0.549-0.414,1.291-0.738,2.232-0.977c0.939-0.238,2.098-0.408,3.473-0.512
		c1.373-0.104,3.031-0.154,4.975-0.154h4.434c1.922,0,3.574,0.051,4.959,0.154s2.543,0.273,3.473,0.512s1.674,0.562,2.232,0.977
		s0.98,0.93,1.271,1.549c0.289,0.621,0.475,1.365,0.557,2.232c0.082,0.869,0.125,1.871,0.125,3.008v6.633
		c0,1.137-0.043,2.141-0.125,3.008s-0.268,1.611-0.557,2.232c-0.291,0.619-0.713,1.137-1.271,1.549
		c-0.559,0.414-1.303,0.74-2.232,0.977c-0.93,0.238-2.088,0.408-3.473,0.512s-3.037,0.156-4.959,0.156H702.08z M716.309,247.359
		c0-1.24-0.066-2.227-0.201-2.961c-0.135-0.732-0.516-1.291-1.146-1.674s-1.607-0.635-2.93-0.76
		c-1.322-0.123-3.162-0.186-5.518-0.186h-4.434c-1.57,0-2.908,0.025-4.014,0.078c-1.105,0.051-2.021,0.145-2.744,0.277
		c-0.723,0.135-1.291,0.332-1.705,0.59s-0.723,0.594-0.93,1.008s-0.33,0.914-0.371,1.504c-0.043,0.588-0.062,1.297-0.062,2.123
		v6.633c0,0.807,0.02,1.51,0.062,2.109c0.041,0.6,0.164,1.105,0.371,1.518c0.207,0.414,0.516,0.75,0.93,1.008
		c0.414,0.26,0.982,0.455,1.705,0.59s1.633,0.227,2.729,0.279c1.096,0.051,2.438,0.076,4.029,0.076h4.434
		c2.355,0,4.195-0.061,5.518-0.186c1.322-0.123,2.299-0.383,2.93-0.775s1.012-0.955,1.146-1.689c0.135-0.732,0.201-1.709,0.201-2.93
		V247.359z"/>
	<path fill="#010101" d="M751.525,253.992c0,1.137-0.043,2.141-0.125,3.008s-0.268,1.611-0.557,2.232
		c-0.291,0.619-0.713,1.137-1.271,1.549c-0.559,0.414-1.303,0.74-2.232,0.977c-0.93,0.238-2.088,0.408-3.473,0.512
		s-3.037,0.156-4.959,0.156h-3.473c-1.943,0-3.602-0.053-4.975-0.156c-1.375-0.104-2.533-0.273-3.473-0.512
		c-0.941-0.236-1.684-0.562-2.232-0.977c-0.547-0.412-0.971-0.93-1.27-1.549c-0.301-0.621-0.492-1.365-0.574-2.232
		s-0.125-1.871-0.125-3.008v-6.633c0-1.137,0.043-2.139,0.125-3.008c0.082-0.867,0.273-1.611,0.574-2.232
		c0.299-0.619,0.723-1.135,1.27-1.549c0.549-0.414,1.291-0.738,2.232-0.977c0.939-0.238,2.098-0.408,3.473-0.512
		c1.373-0.104,3.031-0.154,4.975-0.154h3.473c1.922,0,3.574,0.051,4.959,0.154s2.543,0.273,3.473,0.512s1.674,0.562,2.232,0.977
		s0.98,0.93,1.271,1.549c0.289,0.621,0.475,1.365,0.557,2.232c0.082,0.869,0.125,1.871,0.125,3.008h-2.822
		c0-0.826-0.02-1.535-0.061-2.123c-0.043-0.59-0.166-1.09-0.373-1.504s-0.512-0.75-0.914-1.008s-0.967-0.455-1.689-0.59
		c-0.725-0.133-1.639-0.227-2.744-0.277c-1.105-0.053-2.443-0.078-4.014-0.078h-3.473c-1.57,0-2.908,0.025-4.014,0.078
		c-1.105,0.051-2.021,0.145-2.744,0.277c-0.723,0.135-1.291,0.332-1.705,0.59s-0.723,0.594-0.93,1.008s-0.33,0.914-0.371,1.504
		c-0.043,0.588-0.062,1.297-0.062,2.123v6.633c0,0.807,0.02,1.51,0.062,2.109c0.041,0.6,0.164,1.105,0.371,1.518
		c0.207,0.414,0.516,0.75,0.93,1.008c0.414,0.26,0.982,0.455,1.705,0.59s1.633,0.227,2.729,0.279
		c1.096,0.051,2.438,0.076,4.029,0.076h3.473c2.377,0,4.221-0.061,5.533-0.186c1.312-0.123,2.283-0.383,2.914-0.775
		s1.012-0.955,1.146-1.689c0.135-0.732,0.201-1.709,0.201-2.93v-1.363h-10.941v-2.82H750.1c0.537,0,0.908,0.092,1.115,0.279
		c0.207,0.186,0.311,0.547,0.311,1.084V253.992z"/>
	<path fill="#010101" d="M768.543,262.084h-2.82v-8.152l-13.33-13.33l1.984-2.016l13.732,13.732c0.289,0.27,0.434,0.6,0.434,0.992
		V262.084z M784.074,240.57l-11.098,10.975l-2.016-1.984l11.068-10.975L784.074,240.57z"/>
</g>
</svg>
