<?xml version="1.0" encoding="utf-8"?>
<!-- Generator: Adobe Illustrator 18.1.0, SVG Export Plug-In . SVG Version: 6.00 Build 0)  -->
<svg version="1.1" id="Layer_1" xmlns="http://www.w3.org/2000/svg" xmlns:xlink="http://www.w3.org/1999/xlink" x="0px" y="0px"
	 viewBox="0 123.5 461.5 208" enable-background="new 0 123.5 461.5 208" xml:space="preserve">
<path d="M357.237,173.982c19.494-11.255,44.512-4.548,55.77,14.943c5.818,10.081,7.056,22.207,3.386,33.268
	c-1.015,3.059-4.314,4.713-7.369,3.703c-3.058-1.011-4.714-4.315-3.699-7.374c2.616-7.902,1.736-16.563-2.419-23.765
	c-8.042-13.929-25.91-18.71-39.834-10.673c-13.927,8.04-18.714,25.903-10.671,39.832c4.157,7.2,11.215,12.294,19.356,13.985
	c3.164,0.646,5.19,3.726,4.542,6.889c-0.65,3.15-3.738,5.183-6.893,4.531c-11.407-2.358-21.287-9.492-27.107-19.571
	C331.043,210.255,337.748,185.234,357.237,173.982z M378.434,222.353l14.58,25.251c1.61,2.793,5.172,3.749,7.963,2.14
	c2.789-1.612,3.746-5.176,2.136-7.967l-14.581-25.254c-1.611-2.791-5.178-3.745-7.967-2.133
	C377.776,215.998,376.823,219.562,378.434,222.353z"/>
<rect x="33.45" y="176.187" fill="none" width="329.75" height="125.25"/>
<g enable-background="new    ">
	<g>
		<g>
			<path fill="#00AEEE" d="M73.194,249.994c-7.165,0-13.07-0.313-17.553-0.931c-4.686-0.645-8.445-1.859-11.174-3.609
				c-2.884-1.847-4.873-4.402-5.911-7.593c-0.957-2.934-1.442-6.695-1.442-11.178v-4.4H49.85v4.208c0,2.507,0.266,4.504,0.79,5.936
				c0.43,1.179,1.286,2.073,2.616,2.738c1.555,0.779,3.88,1.308,6.912,1.573c3.219,0.281,7.504,0.424,12.738,0.424h14.688
				c5.44,0,9.862-0.127,13.144-0.378c3.119-0.237,5.516-0.715,7.124-1.421c1.351-0.592,2.204-1.347,2.61-2.308
				c0.5-1.185,0.754-2.845,0.754-4.934v-3.84c0-1.331-0.161-2.403-0.478-3.184c-0.231-0.569-0.71-1.035-1.462-1.422
				c-0.965-0.495-2.403-0.862-4.27-1.089c-2.029-0.245-4.694-0.369-7.918-0.369c-4.716,0-9.588,0.08-14.479,0.238
				c-4.864,0.16-9.78,0.241-14.608,0.241c-4.284,0-8.25-0.198-11.787-0.588c-3.727-0.41-6.974-1.341-9.649-2.767
				c-2.788-1.483-4.994-3.615-6.555-6.338c-1.545-2.692-2.329-6.274-2.329-10.643v-4.032c0-3.995,0.493-7.375,1.464-10.044
				c1.055-2.902,3.044-5.224,5.91-6.899c2.685-1.569,6.393-2.673,11.021-3.28c4.448-0.585,10.269-0.881,17.3-0.881H87.21
				c6.755,0,12.468,0.263,16.98,0.781c4.659,0.538,8.452,1.525,11.274,2.934c3.022,1.512,5.203,3.651,6.482,6.359
				c1.21,2.564,1.824,5.823,1.824,9.686v4.017h-12.736v-3.248c0-1.636-0.307-2.926-0.913-3.836
				c-0.585-0.876-1.658-1.601-3.191-2.155c-1.772-0.639-4.245-1.085-7.348-1.327c-3.242-0.251-7.34-0.378-12.181-0.378H72.906
				c-5.032,0-9.177,0.127-12.321,0.377c-2.979,0.239-5.296,0.691-6.887,1.345c-1.314,0.54-2.145,1.225-2.537,2.093
				c-0.488,1.076-0.735,2.574-0.735,4.456v3.936c0,1.537,0.197,2.83,0.586,3.842c0.304,0.791,0.944,1.438,1.956,1.978
				c1.219,0.65,2.989,1.125,5.26,1.412c2.427,0.309,5.717,0.465,9.782,0.465c5.627,0,11.353-0.097,17.02-0.287
				c5.682-0.192,11.454-0.289,17.155-0.289c3.897,0,7.25,0.435,9.963,1.294c2.805,0.889,5.113,2.169,6.86,3.807
				c1.771,1.661,3.062,3.664,3.838,5.953c0.74,2.185,1.114,4.565,1.114,7.075v4.32c0,4.164-0.471,7.688-1.399,10.472
				c-1.01,3.032-2.972,5.473-5.831,7.256c-2.734,1.704-6.383,2.849-11.156,3.5c-4.515,0.618-10.5,0.931-17.791,0.931H73.194z"/>
		</g>
		<g>
			<path fill="#00AEEE" d="M163.93,248.939v-26.419l-42.097-42.098l8.951-9.089l43.953,43.953c1.245,1.156,1.93,2.725,1.93,4.486
				v29.168H163.93z M179.308,208.159l37.102-36.789l9.21,8.93l-37.223,36.808L179.308,208.159z"/>
		</g>
		<g>
			<path fill="#00AEEE" d="M312.537,248.939v-74.752h12.735v74.752H312.537z M228.729,248.939v-68.336
				c0-4.078,2.373-6.416,6.512-6.416h14.592c0.994,0,1.876,0.176,2.62,0.523c0.646,0.302,1.266,0.707,1.849,1.206l0.061,0.052
				l54.252,54.548l-8.95,9.091l-52.391-52.684h-5.809v62.016H228.729z"/>
		</g>
	</g>
</g>
<g enable-background="new    ">
</g>
<g enable-background="new    ">
	<path d="M53.651,274.096l-1.24,0.666l-5.843-10.338H45.11l-5.844,10.338l-1.24-0.666l6.061-10.711
		c0.134-0.248,0.341-0.372,0.62-0.372h2.294c0.258,0,0.46,0.124,0.604,0.372L53.651,274.096z M46.567,268.965h-1.473v-1.41h1.473
		V268.965z"/>
	<path d="M66.609,270.609h1.41v0.17c0,0.486-0.021,0.92-0.062,1.302c-0.041,0.383-0.134,0.716-0.279,1
		c-0.145,0.284-0.356,0.524-0.636,0.721c-0.279,0.196-0.651,0.354-1.116,0.473c-0.465,0.119-1.044,0.204-1.736,0.256
		c-0.692,0.052-1.519,0.078-2.48,0.078h-1.085c-0.971,0-1.8-0.026-2.487-0.078c-0.688-0.052-1.266-0.137-1.736-0.256
		c-0.47-0.118-0.842-0.281-1.116-0.488c-0.274-0.206-0.486-0.465-0.636-0.774c-0.15-0.311-0.246-0.683-0.287-1.116
		c-0.042-0.434-0.062-0.936-0.062-1.504v-3.316c0-0.568,0.021-1.069,0.062-1.504c0.041-0.434,0.137-0.806,0.287-1.116
		c0.15-0.31,0.362-0.567,0.636-0.774c0.274-0.207,0.646-0.369,1.116-0.488c0.47-0.119,1.049-0.204,1.736-0.256
		c0.687-0.052,1.516-0.077,2.487-0.077h1.085c0.961,0,1.788,0.025,2.48,0.077c0.692,0.052,1.271,0.137,1.736,0.256
		c0.465,0.119,0.837,0.281,1.116,0.488c0.279,0.207,0.491,0.465,0.636,0.774c0.145,0.31,0.238,0.683,0.279,1.116
		c0.042,0.435,0.062,0.935,0.062,1.504v0.186h-1.41v-0.186c0-0.62-0.034-1.113-0.101-1.48c-0.067-0.366-0.258-0.645-0.573-0.837
		c-0.315-0.191-0.804-0.317-1.465-0.38c-0.662-0.061-1.581-0.093-2.759-0.093h-1.085c-0.785,0-1.455,0.013-2.007,0.039
		c-0.553,0.025-1.01,0.072-1.372,0.139c-0.362,0.067-0.646,0.166-0.853,0.295c-0.207,0.129-0.362,0.297-0.465,0.504
		c-0.104,0.207-0.166,0.457-0.186,0.752c-0.021,0.294-0.031,0.648-0.031,1.061v3.316c0,0.403,0.01,0.755,0.031,1.055
		c0.02,0.3,0.082,0.553,0.186,0.759c0.103,0.207,0.258,0.375,0.465,0.504c0.207,0.13,0.491,0.227,0.853,0.295
		c0.362,0.067,0.816,0.113,1.364,0.14c0.547,0.025,1.219,0.038,2.015,0.038h1.085c1.178,0,2.097-0.028,2.759-0.085
		c0.661-0.057,1.149-0.173,1.465-0.349c0.315-0.176,0.506-0.419,0.573-0.729c0.067-0.31,0.101-0.724,0.101-1.24V270.609z"/>
	<path d="M82.015,270.609h1.41v0.17c0,0.486-0.021,0.92-0.062,1.302c-0.041,0.383-0.134,0.716-0.279,1
		c-0.145,0.284-0.357,0.524-0.636,0.721c-0.279,0.196-0.651,0.354-1.116,0.473c-0.465,0.119-1.044,0.204-1.736,0.256
		c-0.692,0.052-1.519,0.078-2.48,0.078h-1.086c-0.971,0-1.8-0.026-2.487-0.078c-0.688-0.052-1.266-0.137-1.736-0.256
		c-0.47-0.118-0.842-0.281-1.116-0.488c-0.274-0.206-0.486-0.465-0.636-0.774c-0.15-0.311-0.246-0.683-0.287-1.116
		c-0.041-0.434-0.062-0.936-0.062-1.504v-3.316c0-0.568,0.021-1.069,0.062-1.504c0.041-0.434,0.137-0.806,0.287-1.116
		c0.15-0.31,0.362-0.567,0.636-0.774c0.273-0.207,0.646-0.369,1.116-0.488c0.47-0.119,1.049-0.204,1.736-0.256
		c0.687-0.052,1.516-0.077,2.487-0.077h1.086c0.961,0,1.788,0.025,2.48,0.077c0.692,0.052,1.271,0.137,1.736,0.256
		c0.465,0.119,0.837,0.281,1.116,0.488c0.279,0.207,0.491,0.465,0.636,0.774c0.144,0.31,0.238,0.683,0.279,1.116
		c0.042,0.435,0.062,0.935,0.062,1.504v0.186h-1.41v-0.186c0-0.62-0.034-1.113-0.101-1.48c-0.067-0.366-0.258-0.645-0.573-0.837
		c-0.315-0.191-0.804-0.317-1.465-0.38c-0.662-0.061-1.581-0.093-2.759-0.093h-1.086c-0.785,0-1.455,0.013-2.007,0.039
		c-0.553,0.025-1.01,0.072-1.372,0.139c-0.362,0.067-0.646,0.166-0.853,0.295c-0.207,0.129-0.362,0.297-0.465,0.504
		c-0.104,0.207-0.166,0.457-0.186,0.752c-0.021,0.294-0.031,0.648-0.031,1.061v3.316c0,0.403,0.01,0.755,0.031,1.055
		c0.021,0.3,0.083,0.553,0.186,0.759c0.103,0.207,0.258,0.375,0.465,0.504c0.206,0.13,0.491,0.227,0.853,0.295
		s0.816,0.113,1.364,0.14c0.547,0.025,1.219,0.038,2.015,0.038h1.086c1.178,0,2.097-0.028,2.759-0.085
		c0.661-0.057,1.149-0.173,1.465-0.349c0.315-0.176,0.506-0.419,0.573-0.729c0.067-0.31,0.101-0.724,0.101-1.24V270.609z"/>
	<path d="M96.57,274.437H86.045c-0.465,0-0.698-0.242-0.698-0.728v-9.982c0-0.475,0.232-0.713,0.698-0.713h10.509v1.411h-9.796
		v8.603h9.812V274.437z M96.166,268.965h-1.488v-1.41h1.488V268.965z"/>
	<path d="M108.303,268.051c0.599,0,1.103,0.064,1.511,0.193c0.408,0.13,0.736,0.311,0.984,0.543
		c0.248,0.232,0.426,0.509,0.535,0.829c0.108,0.32,0.163,0.666,0.163,1.038v0.697c0,0.642-0.07,1.171-0.209,1.589
		c-0.139,0.419-0.408,0.752-0.806,1c-0.398,0.248-0.956,0.421-1.674,0.52c-0.718,0.098-1.661,0.147-2.829,0.147h-2.356
		c-1.147,0-2.077-0.05-2.79-0.147c-0.713-0.099-1.271-0.276-1.674-0.535c-0.403-0.258-0.677-0.609-0.822-1.054
		c-0.145-0.444-0.217-1.013-0.217-1.705v-0.388h1.411v0.356c0,0.444,0.049,0.801,0.147,1.069c0.098,0.27,0.292,0.476,0.582,0.62
		c0.289,0.146,0.7,0.24,1.232,0.287c0.532,0.047,1.227,0.069,2.085,0.069h2.372c0.888,0,1.604-0.021,2.146-0.061
		c0.542-0.041,0.961-0.127,1.255-0.256c0.295-0.129,0.491-0.31,0.589-0.543c0.098-0.232,0.147-0.539,0.147-0.922v-0.62
		c0-0.258-0.034-0.47-0.101-0.636c-0.067-0.165-0.196-0.297-0.388-0.395c-0.191-0.099-0.457-0.168-0.798-0.21
		c-0.341-0.041-0.781-0.062-1.318-0.062c-0.775,0-1.558,0.013-2.348,0.039c-0.79,0.025-1.573,0.038-2.348,0.038
		c-0.682,0-1.305-0.03-1.868-0.093c-0.563-0.061-1.044-0.199-1.442-0.411c-0.397-0.211-0.707-0.511-0.93-0.898
		c-0.222-0.388-0.334-0.907-0.334-1.558v-0.651c0-0.609,0.072-1.113,0.217-1.511c0.145-0.398,0.416-0.713,0.814-0.946
		c0.398-0.232,0.951-0.395,1.659-0.488c0.708-0.093,1.625-0.139,2.751-0.139h2.232c1.085,0,1.986,0.041,2.705,0.124
		c0.718,0.082,1.289,0.23,1.713,0.441c0.423,0.212,0.723,0.504,0.899,0.876c0.175,0.372,0.263,0.847,0.263,1.426v0.325h-1.41v-0.201
		c0-0.331-0.067-0.597-0.202-0.798c-0.134-0.202-0.359-0.359-0.674-0.474c-0.315-0.113-0.739-0.19-1.271-0.232
		c-0.532-0.041-1.196-0.061-1.992-0.061h-2.34c-0.827,0-1.498,0.02-2.015,0.061c-0.517,0.042-0.92,0.122-1.209,0.24
		c-0.29,0.119-0.483,0.287-0.581,0.504c-0.099,0.217-0.147,0.502-0.147,0.853v0.636c0,0.289,0.039,0.534,0.116,0.736
		c0.078,0.201,0.232,0.364,0.465,0.488c0.233,0.124,0.553,0.212,0.961,0.264c0.408,0.052,0.948,0.077,1.62,0.077
		c0.919,0,1.839-0.016,2.759-0.047C106.464,268.067,107.383,268.051,108.303,268.051z"/>
	<path d="M123.524,268.051c0.599,0,1.103,0.064,1.511,0.193c0.408,0.13,0.736,0.311,0.984,0.543
		c0.248,0.232,0.426,0.509,0.535,0.829c0.108,0.32,0.163,0.666,0.163,1.038v0.697c0,0.642-0.07,1.171-0.21,1.589
		c-0.139,0.419-0.408,0.752-0.806,1c-0.398,0.248-0.956,0.421-1.674,0.52c-0.718,0.098-1.661,0.147-2.829,0.147h-2.356
		c-1.147,0-2.077-0.05-2.79-0.147c-0.713-0.099-1.271-0.276-1.674-0.535c-0.403-0.258-0.677-0.609-0.822-1.054
		c-0.145-0.444-0.217-1.013-0.217-1.705v-0.388h1.411v0.356c0,0.444,0.049,0.801,0.147,1.069c0.098,0.27,0.292,0.476,0.581,0.62
		c0.289,0.146,0.7,0.24,1.232,0.287c0.532,0.047,1.227,0.069,2.085,0.069h2.372c0.888,0,1.604-0.021,2.146-0.061
		c0.542-0.041,0.961-0.127,1.255-0.256c0.295-0.129,0.491-0.31,0.589-0.543c0.098-0.232,0.147-0.539,0.147-0.922v-0.62
		c0-0.258-0.034-0.47-0.101-0.636c-0.067-0.165-0.196-0.297-0.388-0.395c-0.191-0.099-0.457-0.168-0.798-0.21
		c-0.341-0.041-0.781-0.062-1.318-0.062c-0.775,0-1.558,0.013-2.348,0.039c-0.791,0.025-1.573,0.038-2.348,0.038
		c-0.682,0-1.305-0.03-1.868-0.093c-0.564-0.061-1.044-0.199-1.442-0.411c-0.397-0.211-0.708-0.511-0.93-0.898
		s-0.333-0.907-0.333-1.558v-0.651c0-0.609,0.072-1.113,0.217-1.511c0.144-0.398,0.415-0.713,0.813-0.946
		c0.398-0.232,0.951-0.395,1.659-0.488c0.707-0.093,1.625-0.139,2.751-0.139h2.232c1.085,0,1.986,0.041,2.705,0.124
		c0.718,0.082,1.289,0.23,1.713,0.441c0.423,0.212,0.723,0.504,0.899,0.876c0.175,0.372,0.263,0.847,0.263,1.426v0.325h-1.41v-0.201
		c0-0.331-0.067-0.597-0.202-0.798c-0.134-0.202-0.359-0.359-0.674-0.474c-0.315-0.113-0.739-0.19-1.271-0.232
		c-0.532-0.041-1.196-0.061-1.992-0.061h-2.34c-0.827,0-1.498,0.02-2.015,0.061c-0.517,0.042-0.92,0.122-1.209,0.24
		c-0.29,0.119-0.483,0.287-0.581,0.504c-0.099,0.217-0.147,0.502-0.147,0.853v0.636c0,0.289,0.038,0.534,0.116,0.736
		c0.078,0.201,0.232,0.364,0.465,0.488c0.233,0.124,0.553,0.212,0.961,0.264c0.408,0.052,0.948,0.077,1.62,0.077
		c0.919,0,1.839-0.016,2.759-0.047C121.684,268.067,122.604,268.051,123.524,268.051z"/>
	<path d="M139.364,272.499v-3.255h-3.271v-1.41h3.271v-3.271h1.411v3.271h3.255v1.41h-3.255v3.255H139.364z"/>
	<path d="M163.575,268.051c0.599,0,1.102,0.064,1.511,0.193c0.408,0.13,0.736,0.311,0.984,0.543
		c0.248,0.232,0.426,0.509,0.535,0.829c0.108,0.32,0.163,0.666,0.163,1.038v0.697c0,0.642-0.07,1.171-0.21,1.589
		c-0.139,0.419-0.408,0.752-0.806,1c-0.398,0.248-0.956,0.421-1.674,0.52c-0.718,0.098-1.661,0.147-2.829,0.147h-2.356
		c-1.147,0-2.077-0.05-2.79-0.147c-0.713-0.099-1.271-0.276-1.674-0.535c-0.403-0.258-0.677-0.609-0.822-1.054
		c-0.145-0.444-0.217-1.013-0.217-1.705v-0.388h1.411v0.356c0,0.444,0.049,0.801,0.147,1.069c0.098,0.27,0.292,0.476,0.582,0.62
		c0.289,0.146,0.7,0.24,1.232,0.287c0.532,0.047,1.227,0.069,2.085,0.069h2.372c0.888,0,1.604-0.021,2.146-0.061
		c0.542-0.041,0.961-0.127,1.255-0.256c0.295-0.129,0.491-0.31,0.589-0.543c0.098-0.232,0.147-0.539,0.147-0.922v-0.62
		c0-0.258-0.034-0.47-0.101-0.636c-0.067-0.165-0.196-0.297-0.388-0.395c-0.191-0.099-0.457-0.168-0.798-0.21
		c-0.341-0.041-0.781-0.062-1.318-0.062c-0.775,0-1.558,0.013-2.348,0.039c-0.79,0.025-1.573,0.038-2.348,0.038
		c-0.682,0-1.305-0.03-1.868-0.093c-0.563-0.061-1.044-0.199-1.442-0.411c-0.398-0.211-0.708-0.511-0.93-0.898
		c-0.222-0.388-0.333-0.907-0.333-1.558v-0.651c0-0.609,0.072-1.113,0.217-1.511c0.145-0.398,0.415-0.713,0.813-0.946
		c0.398-0.232,0.951-0.395,1.659-0.488c0.708-0.093,1.625-0.139,2.752-0.139h2.232c1.085,0,1.986,0.041,2.705,0.124
		c0.718,0.082,1.289,0.23,1.713,0.441c0.423,0.212,0.723,0.504,0.899,0.876c0.175,0.372,0.263,0.847,0.263,1.426v0.325h-1.41v-0.201
		c0-0.331-0.067-0.597-0.202-0.798c-0.134-0.202-0.359-0.359-0.674-0.474c-0.315-0.113-0.739-0.19-1.271-0.232
		c-0.532-0.041-1.196-0.061-1.992-0.061h-2.34c-0.827,0-1.499,0.02-2.015,0.061c-0.517,0.042-0.92,0.122-1.209,0.24
		c-0.29,0.119-0.483,0.287-0.581,0.504c-0.099,0.217-0.147,0.502-0.147,0.853v0.636c0,0.289,0.039,0.534,0.116,0.736
		c0.078,0.201,0.232,0.364,0.465,0.488c0.233,0.124,0.553,0.212,0.961,0.264c0.408,0.052,0.948,0.077,1.62,0.077
		c0.92,0,1.839-0.016,2.759-0.047C161.736,268.067,162.655,268.051,163.575,268.051z"/>
	<path d="M180.067,274.437h-10.524c-0.465,0-0.698-0.242-0.698-0.728v-9.982c0-0.475,0.233-0.713,0.698-0.713h10.509v1.411h-9.796
		v8.603h9.811V274.437z M179.663,268.965h-1.488v-1.41h1.488V268.965z"/>
	<path d="M193.924,270.609h1.41v0.17c0,0.486-0.02,0.92-0.062,1.302c-0.041,0.383-0.134,0.716-0.279,1
		c-0.145,0.284-0.357,0.524-0.636,0.721c-0.279,0.196-0.651,0.354-1.116,0.473c-0.465,0.119-1.044,0.204-1.736,0.256
		c-0.692,0.052-1.519,0.078-2.48,0.078h-1.085c-0.971,0-1.8-0.026-2.487-0.078c-0.688-0.052-1.266-0.137-1.736-0.256
		c-0.47-0.118-0.842-0.281-1.116-0.488c-0.274-0.206-0.486-0.465-0.636-0.774c-0.15-0.311-0.246-0.683-0.287-1.116
		c-0.041-0.434-0.062-0.936-0.062-1.504v-3.316c0-0.568,0.021-1.069,0.062-1.504c0.041-0.434,0.137-0.806,0.287-1.116
		c0.15-0.31,0.362-0.567,0.636-0.774c0.273-0.207,0.645-0.369,1.116-0.488c0.47-0.119,1.049-0.204,1.736-0.256
		c0.687-0.052,1.516-0.077,2.487-0.077h1.085c0.961,0,1.788,0.025,2.48,0.077c0.692,0.052,1.271,0.137,1.736,0.256
		c0.465,0.119,0.837,0.281,1.116,0.488c0.279,0.207,0.491,0.465,0.636,0.774c0.144,0.31,0.238,0.683,0.279,1.116
		c0.042,0.435,0.062,0.935,0.062,1.504v0.186h-1.41v-0.186c0-0.62-0.034-1.113-0.101-1.48c-0.067-0.366-0.258-0.645-0.573-0.837
		c-0.315-0.191-0.804-0.317-1.465-0.38c-0.662-0.061-1.581-0.093-2.759-0.093h-1.085c-0.785,0-1.455,0.013-2.007,0.039
		c-0.553,0.025-1.01,0.072-1.372,0.139c-0.362,0.067-0.646,0.166-0.853,0.295c-0.207,0.129-0.362,0.297-0.465,0.504
		c-0.104,0.207-0.165,0.457-0.186,0.752c-0.021,0.294-0.031,0.648-0.031,1.061v3.316c0,0.403,0.01,0.755,0.031,1.055
		c0.02,0.3,0.082,0.553,0.186,0.759c0.103,0.207,0.258,0.375,0.465,0.504c0.206,0.13,0.491,0.227,0.853,0.295
		c0.362,0.067,0.816,0.113,1.364,0.14c0.547,0.025,1.219,0.038,2.015,0.038h1.085c1.178,0,2.097-0.028,2.759-0.085
		c0.661-0.057,1.149-0.173,1.465-0.349c0.315-0.176,0.506-0.419,0.573-0.729c0.067-0.31,0.101-0.724,0.101-1.24V270.609z"/>
	<path d="M209.888,263.013h1.411v7.378c0,0.568-0.021,1.07-0.062,1.504c-0.042,0.434-0.137,0.806-0.287,1.116
		c-0.15,0.31-0.362,0.568-0.636,0.774c-0.274,0.207-0.645,0.37-1.116,0.488c-0.47,0.119-1.049,0.204-1.736,0.256
		c-0.687,0.052-1.516,0.078-2.487,0.078h-1.473c-1.447,0-2.591-0.06-3.433-0.179c-0.842-0.118-1.476-0.333-1.899-0.644
		c-0.424-0.31-0.692-0.738-0.806-1.286c-0.114-0.548-0.17-1.25-0.17-2.108v-7.378h1.411v7.378c0,0.61,0.033,1.099,0.101,1.465
		c0.067,0.367,0.258,0.648,0.574,0.845c0.315,0.196,0.8,0.326,1.457,0.388c0.656,0.062,1.578,0.093,2.767,0.093h1.473
		c0.785,0,1.454-0.013,2.007-0.038c0.553-0.026,1.01-0.072,1.372-0.14c0.361-0.067,0.645-0.165,0.852-0.295
		c0.207-0.129,0.361-0.297,0.465-0.504c0.103-0.206,0.165-0.457,0.186-0.751c0.02-0.295,0.031-0.648,0.031-1.062V263.013z"/>
	<path d="M227.279,267.027c0,0.465-0.031,0.858-0.093,1.178c-0.062,0.321-0.147,0.587-0.256,0.799
		c-0.108,0.212-0.23,0.382-0.364,0.512c-0.135,0.129-0.279,0.24-0.434,0.333c0.124,0.093,0.243,0.199,0.357,0.317
		c0.114,0.119,0.217,0.262,0.31,0.427c0.093,0.165,0.165,0.356,0.217,0.573c0.052,0.217,0.078,0.48,0.078,0.79v2.48h-1.395v-2.294
		c0-0.341-0.01-0.612-0.031-0.814c-0.021-0.202-0.075-0.359-0.163-0.473c-0.088-0.114-0.214-0.199-0.379-0.256
		c-0.165-0.057-0.388-0.122-0.667-0.194c-0.31-0.082-0.465-0.278-0.465-0.589c0-0.145,0.031-0.269,0.093-0.372
		c0.062-0.103,0.165-0.181,0.31-0.232c0.351-0.093,0.625-0.181,0.821-0.264c0.196-0.082,0.343-0.196,0.442-0.341
		c0.098-0.145,0.157-0.336,0.178-0.573c0.02-0.237,0.031-0.559,0.031-0.961c0-0.609-0.046-1.09-0.139-1.441
		c-0.093-0.352-0.279-0.617-0.558-0.799c-0.279-0.181-0.68-0.294-1.201-0.341c-0.522-0.047-1.206-0.069-2.054-0.069h-6.96v10.013
		h-1.426v-10.711c0-0.475,0.243-0.713,0.728-0.713h7.486c1.188,0,2.147,0.058,2.875,0.171c0.729,0.113,1.289,0.317,1.682,0.612
		c0.393,0.294,0.653,0.703,0.783,1.225C227.215,265.542,227.279,266.211,227.279,267.027z"/>
	<path d="M230.891,274.437h-1.426v-11.424h1.426V274.437z"/>
	<path d="M244.593,264.424h-12.183v-1.411h12.183V264.424z M239.183,274.437h-1.411v-8.478h1.411V274.437z"/>
	<path d="M253.179,274.437h-1.411v-4.076l-6.665-6.665l0.992-1.008l6.866,6.866c0.145,0.135,0.218,0.3,0.218,0.496V274.437z
		 M260.944,263.68l-5.549,5.487l-1.007-0.992l5.533-5.487L260.944,263.68z"/>
	<path d="M280.94,264.424h-12.184v-1.411h12.184V264.424z M275.53,274.437h-1.41v-8.478h1.41V274.437z"/>
	<path d="M293.696,274.437h-10.524c-0.466,0-0.698-0.242-0.698-0.728v-9.982c0-0.475,0.233-0.713,0.698-0.713h10.509v1.411h-9.796
		v8.603h9.811V274.437z M293.293,268.965h-1.487v-1.41h1.487V268.965z"/>
	<path d="M307.553,270.609h1.41v0.17c0,0.486-0.021,0.92-0.062,1.302c-0.041,0.383-0.135,0.716-0.279,1
		c-0.145,0.284-0.355,0.524-0.635,0.721c-0.279,0.196-0.651,0.354-1.116,0.473c-0.465,0.119-1.044,0.204-1.735,0.256
		c-0.693,0.052-1.52,0.078-2.48,0.078h-1.086c-0.971,0-1.8-0.026-2.486-0.078c-0.688-0.052-1.267-0.137-1.736-0.256
		c-0.471-0.118-0.843-0.281-1.116-0.488c-0.274-0.206-0.485-0.465-0.636-0.774c-0.15-0.311-0.246-0.683-0.287-1.116
		c-0.041-0.434-0.061-0.936-0.061-1.504v-3.316c0-0.568,0.02-1.069,0.061-1.504c0.041-0.434,0.137-0.806,0.287-1.116
		c0.15-0.31,0.361-0.567,0.636-0.774c0.273-0.207,0.646-0.369,1.116-0.488c0.47-0.119,1.049-0.204,1.736-0.256
		c0.686-0.052,1.516-0.077,2.486-0.077h1.086c0.961,0,1.787,0.025,2.48,0.077c0.691,0.052,1.271,0.137,1.735,0.256
		c0.465,0.119,0.837,0.281,1.116,0.488c0.279,0.207,0.49,0.465,0.635,0.774c0.145,0.31,0.238,0.683,0.279,1.116
		c0.041,0.435,0.062,0.935,0.062,1.504v0.186h-1.41v-0.186c0-0.62-0.034-1.113-0.102-1.48c-0.067-0.366-0.258-0.645-0.573-0.837
		s-0.804-0.317-1.465-0.38c-0.661-0.061-1.581-0.093-2.759-0.093h-1.086c-0.785,0-1.454,0.013-2.006,0.039
		c-0.554,0.025-1.011,0.072-1.373,0.139c-0.361,0.067-0.645,0.166-0.851,0.295c-0.207,0.129-0.362,0.297-0.465,0.504
		c-0.104,0.207-0.166,0.457-0.187,0.752c-0.02,0.294-0.03,0.648-0.03,1.061v3.316c0,0.403,0.01,0.755,0.03,1.055
		c0.021,0.3,0.083,0.553,0.187,0.759c0.103,0.207,0.258,0.375,0.465,0.504c0.206,0.13,0.49,0.227,0.851,0.295
		c0.362,0.067,0.816,0.113,1.365,0.14c0.547,0.025,1.219,0.038,2.014,0.038h1.086c1.178,0,2.098-0.028,2.759-0.085
		c0.661-0.057,1.149-0.173,1.465-0.349c0.315-0.176,0.506-0.419,0.573-0.729c0.067-0.31,0.102-0.724,0.102-1.24V270.609z"/>
	<path d="M312.296,274.437h-1.41v-11.424h1.41V274.437z M322.603,269.182h-9.315v-1.41h9.315V269.182z M325.036,274.437h-1.41
		v-11.424h1.41V274.437z"/>
	<path d="M339.452,271.786l-0.992,1.008l-8.324-8.37h-1.395v10.013h-1.41v-10.711c0-0.475,0.242-0.713,0.728-0.713h2.355
		c0.113,0,0.209,0.018,0.287,0.055c0.077,0.036,0.152,0.085,0.225,0.147L339.452,271.786z M342.272,274.437h-1.41v-11.424h1.41
		V274.437z"/>
	<path d="M350.658,274.608c-0.972,0-1.801-0.026-2.487-0.078c-0.688-0.052-1.267-0.137-1.736-0.256
		c-0.471-0.118-0.842-0.281-1.116-0.488c-0.273-0.206-0.485-0.465-0.635-0.774c-0.15-0.311-0.246-0.683-0.287-1.116
		c-0.042-0.434-0.061-0.936-0.061-1.504v-3.316c0-0.568,0.02-1.069,0.061-1.504c0.041-0.434,0.137-0.806,0.287-1.116
		c0.149-0.31,0.361-0.567,0.635-0.774c0.274-0.207,0.645-0.369,1.116-0.488c0.47-0.119,1.049-0.204,1.736-0.256
		c0.687-0.052,1.516-0.077,2.487-0.077h2.217c0.961,0,1.787,0.025,2.48,0.077c0.692,0.052,1.271,0.137,1.736,0.256
		c0.465,0.119,0.837,0.281,1.116,0.488c0.279,0.207,0.49,0.465,0.636,0.774c0.145,0.31,0.237,0.683,0.278,1.116
		c0.041,0.435,0.062,0.935,0.062,1.504v3.316c0,0.568-0.022,1.07-0.062,1.504c-0.041,0.434-0.134,0.806-0.278,1.116
		c-0.145,0.31-0.357,0.568-0.636,0.774c-0.279,0.207-0.651,0.37-1.116,0.488c-0.465,0.119-1.044,0.204-1.736,0.256
		c-0.692,0.052-1.519,0.078-2.48,0.078H350.658z M357.772,267.074c0-0.62-0.033-1.113-0.101-1.48
		c-0.067-0.366-0.258-0.645-0.573-0.837c-0.315-0.191-0.804-0.317-1.465-0.38c-0.661-0.061-1.581-0.093-2.759-0.093h-2.217
		c-0.785,0-1.454,0.013-2.007,0.039c-0.553,0.025-1.011,0.072-1.372,0.139c-0.361,0.067-0.645,0.166-0.852,0.295
		c-0.207,0.129-0.361,0.297-0.465,0.504c-0.104,0.207-0.165,0.457-0.186,0.752c-0.021,0.294-0.031,0.648-0.031,1.061v3.316
		c0,0.403,0.01,0.755,0.031,1.055c0.021,0.3,0.082,0.553,0.186,0.759c0.103,0.207,0.258,0.375,0.465,0.504
		c0.207,0.13,0.491,0.227,0.852,0.295c0.361,0.067,0.816,0.113,1.364,0.14c0.548,0.025,1.219,0.038,2.015,0.038h2.217
		c1.178,0,2.098-0.03,2.759-0.093c0.661-0.062,1.149-0.191,1.465-0.388c0.316-0.196,0.506-0.478,0.573-0.845
		c0.067-0.366,0.101-0.854,0.101-1.465V267.074z"/>
	<path d="M371.846,274.437h-9.904c-0.465,0-0.697-0.242-0.697-0.728v-10.695h1.41v10.014h9.191V274.437z"/>
	<path d="M379.147,274.608c-0.972,0-1.801-0.026-2.487-0.078c-0.688-0.052-1.267-0.137-1.736-0.256
		c-0.471-0.118-0.842-0.281-1.116-0.488c-0.273-0.206-0.485-0.465-0.635-0.774c-0.15-0.311-0.246-0.683-0.287-1.116
		c-0.041-0.434-0.062-0.936-0.062-1.504v-3.316c0-0.568,0.021-1.069,0.062-1.504c0.041-0.434,0.137-0.806,0.287-1.116
		c0.149-0.31,0.361-0.567,0.635-0.774c0.274-0.207,0.646-0.369,1.116-0.488c0.47-0.119,1.049-0.204,1.736-0.256
		c0.686-0.052,1.516-0.077,2.487-0.077h2.217c0.961,0,1.787,0.025,2.479,0.077c0.692,0.052,1.271,0.137,1.736,0.256
		c0.465,0.119,0.837,0.281,1.116,0.488c0.279,0.207,0.49,0.465,0.636,0.774c0.145,0.31,0.237,0.683,0.278,1.116
		c0.041,0.435,0.062,0.935,0.062,1.504v3.316c0,0.568-0.022,1.07-0.062,1.504c-0.041,0.434-0.134,0.806-0.278,1.116
		c-0.145,0.31-0.356,0.568-0.636,0.774c-0.279,0.207-0.651,0.37-1.116,0.488c-0.465,0.119-1.044,0.204-1.736,0.256
		c-0.692,0.052-1.519,0.078-2.479,0.078H379.147z M386.261,267.074c0-0.62-0.033-1.113-0.101-1.48
		c-0.067-0.366-0.258-0.645-0.573-0.837s-0.804-0.317-1.465-0.38c-0.661-0.061-1.581-0.093-2.759-0.093h-2.217
		c-0.785,0-1.454,0.013-2.007,0.039c-0.553,0.025-1.011,0.072-1.372,0.139c-0.361,0.067-0.646,0.166-0.853,0.295
		c-0.207,0.129-0.361,0.297-0.465,0.504c-0.104,0.207-0.165,0.457-0.186,0.752c-0.022,0.294-0.031,0.648-0.031,1.061v3.316
		c0,0.403,0.01,0.755,0.031,1.055c0.02,0.3,0.082,0.553,0.186,0.759c0.103,0.207,0.258,0.375,0.465,0.504
		c0.207,0.13,0.491,0.227,0.853,0.295c0.361,0.067,0.816,0.113,1.364,0.14c0.548,0.025,1.219,0.038,2.015,0.038h2.217
		c1.178,0,2.098-0.03,2.759-0.093c0.661-0.062,1.149-0.191,1.465-0.388s0.506-0.478,0.573-0.845
		c0.067-0.366,0.101-0.854,0.101-1.465V267.074z"/>
	<path d="M403.87,270.391c0,0.568-0.022,1.07-0.062,1.504c-0.041,0.434-0.134,0.806-0.278,1.116
		c-0.145,0.31-0.356,0.568-0.636,0.774c-0.279,0.207-0.651,0.37-1.116,0.488c-0.465,0.119-1.044,0.204-1.736,0.256
		c-0.692,0.052-1.518,0.078-2.479,0.078h-1.736c-0.972,0-1.801-0.026-2.487-0.078c-0.688-0.052-1.267-0.137-1.736-0.256
		c-0.471-0.118-0.842-0.281-1.116-0.488c-0.273-0.206-0.485-0.465-0.635-0.774c-0.15-0.311-0.246-0.683-0.287-1.116
		c-0.041-0.434-0.062-0.936-0.062-1.504v-3.316c0-0.568,0.022-1.069,0.062-1.504c0.041-0.434,0.137-0.806,0.287-1.116
		c0.149-0.31,0.361-0.567,0.635-0.774c0.274-0.207,0.646-0.369,1.116-0.488c0.47-0.119,1.049-0.204,1.736-0.256
		c0.686-0.052,1.516-0.077,2.487-0.077h1.736c0.961,0,1.787,0.025,2.479,0.077c0.692,0.052,1.271,0.137,1.736,0.256
		c0.465,0.119,0.837,0.281,1.116,0.488c0.279,0.207,0.49,0.465,0.636,0.774c0.145,0.31,0.237,0.683,0.278,1.116
		c0.041,0.435,0.062,0.935,0.062,1.504h-1.411c0-0.413-0.01-0.768-0.03-1.061c-0.021-0.295-0.083-0.545-0.186-0.752
		c-0.104-0.207-0.256-0.375-0.457-0.504c-0.201-0.129-0.483-0.228-0.845-0.295c-0.362-0.066-0.819-0.113-1.372-0.139
		c-0.553-0.026-1.222-0.039-2.007-0.039h-1.736c-0.785,0-1.454,0.013-2.007,0.039c-0.553,0.025-1.011,0.072-1.372,0.139
		c-0.361,0.067-0.646,0.166-0.853,0.295c-0.207,0.129-0.361,0.297-0.465,0.504c-0.103,0.207-0.165,0.457-0.185,0.752
		c-0.022,0.294-0.031,0.648-0.031,1.061v3.316c0,0.403,0.01,0.755,0.031,1.055c0.02,0.3,0.082,0.553,0.185,0.759
		c0.104,0.207,0.258,0.375,0.465,0.504c0.207,0.13,0.491,0.227,0.853,0.295s0.816,0.113,1.364,0.14
		c0.548,0.025,1.219,0.038,2.015,0.038h1.736c1.188,0,2.11-0.03,2.767-0.093c0.656-0.062,1.142-0.191,1.457-0.388
		c0.315-0.196,0.506-0.478,0.573-0.845c0.067-0.366,0.101-0.854,0.101-1.465v-0.682h-5.471v-1.41h6.169
		c0.269,0,0.454,0.046,0.558,0.14c0.104,0.093,0.155,0.273,0.155,0.542V270.391z"/>
	<path d="M412.379,274.437h-1.41v-4.076l-6.665-6.665l0.992-1.008l6.866,6.866c0.145,0.135,0.217,0.3,0.217,0.496V274.437z
		 M420.144,263.68l-5.549,5.487l-1.008-0.992l5.534-5.487L420.144,263.68z"/>
</g>
</svg>
